<?xml version="1.0" encoding="UTF-8"?>
<!-- Created with Inkscape (http://www.inkscape.org/) -->
<svg width="192.01" height="85.997" version="1.1" viewBox="-25.43 -11.377 50.86 22.78" xmlns="http://www.w3.org/2000/svg">
 <g transform="translate(-87.844 -156.1)">
  <path d="m98.03 158.22v-0.52917c-2.5477-1.74-7.3376-6.7827-2.381-8.9238 0.90966-0.39293 1.9356-0.62719 2.9102-0.79026 2.7211-0.4553 5.6598-0.20687 7.9336 1.4928 4.079 3.0489 6.2451 8.998 1.0622 12.097-5.7406 3.4324-13.515 2.2964-19.579 0.0684-1.3105-0.48149-2.3681-1.4715-3.7042-1.8804-3.0458-0.93227-7.4387-1.0463-10.583-0.62838-2.8609 0.3802-6.3782 0.26319-8.9958 1.5752-0.924 0.46314-2.5811 1.4982-2.1928 2.7712 0.45062 1.4774 2.3712 0.38941 3.2511 0.12514 3.029-0.90975 7.1519-1.781 10.319-1.6181 8.8081 0.45307 16.362 5.5009 25.4 5.5009 4.8095 0 9.1802-0.77511 10.968-5.8208 3.1386-8.8604-3.2683-16.937-12.555-16.933-2.6581 1e-3 -6.4515 0.24921-8.3054 2.4302-1.2968 1.5256-2.5502 3.9893-2.1906 6.0364 0.58215 3.314 5.5868 5.7529 8.6439 5.0271" fill="#070707"/>
 </g>
</svg>
