<?xml version="1.0" encoding="UTF-8"?>
<!-- Created with Inkscape (http://www.inkscape.org/) -->
<svg width="119.63" height="113.15" version="1.1" viewBox="-15.816 -14.96 31.643 29.929" xmlns="http://www.w3.org/2000/svg">
 <g transform="translate(-114.77 -151.75)">
  <path d="m108.68 140c0.75489 2.3814 0.26363 4.6867 0.26458 7.1438 3.5e-4 0.89226-0.21219 2.3143 0.6439 2.9031 1.8497 1.2721 3.6672-1.0796 5.1769-1.6485 3.8331-1.4443 11-0.0802 12.267 4.3017 1.6975 5.873-1.7691 10.819-7.7687 11.085-2.0907 0.0928-4.0288-1.0933-6.0813-1.0048-1.3293 0.0573-1.7094 1.2539-0.87541 2.2512 1.4497 1.7335 4.9221 1.6918 6.9567 1.6916 3.0068-2e-4 6.5005-0.26333 8.6075-2.6697 5.5811-6.3741 2.2688-18.985-7.02-19.026-3.0486-0.0135-5.8264 0.76299-8.7312 1.5873-0.58186-1.5965-1.0508-5.2872 0.82254-6.262 1.0001-0.5204 2.5822-0.11266 3.6754-0.0841 1.3078 0.0341 5.1011 0.96824 4.6629-1.5883-0.32407-1.8906-3.2156-1.848-4.6629-1.8549-4.0567-0.0196-8.114-2.1e-4 -12.171-2.1e-4 -1.4226 0-3.7681-0.25783-4.9428 0.72536-1.4446 1.2091 0.26582 2.7432 1.5034 3.0548 2.1161 0.53279 5.6138 0.0476 7.6727-0.60511" fill="#070707"/>
 </g>
</svg>
