<?xml version="1.0" encoding="UTF-8"?>
<!-- Created with Inkscape (http://www.inkscape.org/) -->
<svg width="126.4" height="115.48" version="1.1" viewBox="-16.714 -15.27 33.434 30.547" xmlns="http://www.w3.org/2000/svg">
 <g transform="translate(-59.047 -140.15)">
  <path d="m60.514 138.29c-6.7006 0.71517-10.946-3.7367-14.026-8.9958-0.58672-1.0018-2.2978-3.7705-3.7654-2.2214-1.3502 1.4251 1.1963 5.1075 1.8174 6.4547 2.5765 5.5886 7.2774 7.8166 13.328 8.4216 2.3864 0.23861 5.9069-0.60836 7.8213 1.1945 3.2873 3.0957 4.1358 6.3828 5.9109 10.228 0.5349 1.1586 1.4636 2.4862 2.9249 1.919 2.9237-1.1348-0.16105-4.9099-0.66901-6.6815-0.99994-3.4876-2.6999-3.71-5.0636-6.1313-2.7477-2.8147-4.8958-6.0896-6.274-9.7437-0.73212-1.941-1.8664-7.667-4.3866-7.8483-1.9859-0.14286-1.9365 1.9998-1.6134 3.3504 0.85445 3.5721 2.9975 6.5899 3.9955 10.054" fill="#070707"/>
 </g>
</svg>
