<?xml version="1.0" encoding="UTF-8"?>
<!-- Created with Inkscape (http://www.inkscape.org/) -->
<svg width="160.2" height="129.54" version="1.1" viewBox="-21.33 -17.248 42.523 34.386" xmlns="http://www.w3.org/2000/svg">
 <g transform="translate(-86.947 -67.52)">
  <path d="m74.331 50.397c-7.5154 1.0791-11.47 12.743-6.5141 18.662 3.5489 4.238 10.434 5.09 14.716 8.3536 2.2798 1.7375 3.4033 7.2587 6.3498 7.2444 2.3885-0.01161 5.4203-4.9703 7.144-6.5676 2.6385-2.4451 6.2778-4.1095 8.5514-6.9135 5.1201-6.3145 5.6302-19.138-4.5827-20.547-3.7461-0.51691-9.3425 3.1771-10.304 6.7995-1.0135 3.8175 0.15646 9.1672 4.748 9.7406 4.4576 0.55664 9.4522-6.8811 4.706-9.6932-1.7414-1.0318-6.5963-0.05991-4.6986 2.7789 0.93369 1.3967 2.9387-0.76345 3.5002 0.91072 0.75631 2.2547-2.1119 3.5225-3.772 2.4268-2.9308-1.9345-2.5414-5.0019 0.0245-7.0747 2.2812-1.8428 5.497-2.4737 8.1772-1.1925 2.7574 1.3181 3.076 4.468 2.5403 7.1305-1.1583 5.757-6.4231 9.4825-10.478 13.253-1.191 1.1075-3.5497 4.2328-5.2772 4.2754-0.97431 0.024-1.3204-1.2502-1.7286-1.9178-0.92652-1.5155-2.3346-2.9088-3.8422-3.845-3.5574-2.2092-8.6193-3.2847-11.593-6.2581-3.927-3.927-2.7097-11.299 2.3323-13.599 3.1239-1.4251 7.25 0.0534 9.0753 2.8041 1.1328 1.7072 1.9135 4.1154 0.12861 5.7059-1.427 1.2717-3.6529 0.78316-4.5071-0.9477-1.1373-2.3045 2.841-0.7372 2.7561-2.1548-0.14103-2.3546-3.3421-3.025-4.7476-1.5204-3.2902 3.5222 0.72527 8.9862 4.9677 8.6155 4.6554-0.40682 7.6115-6.1996 5.4191-10.232-2.46-4.5244-8.0397-6.9621-13.092-6.2367" fill="#070707"/>
 </g>
</svg>
