<?xml version="1.0" encoding="UTF-8"?>
<!-- Created with Inkscape (http://www.inkscape.org/) -->
<svg width="143.12" height="135.64" version="1.1" viewBox="-19.43 -17.94 37.862 35.885" xmlns="http://www.w3.org/2000/svg">
 <g transform="translate(-108.6 -128.8)">
  <path d="m116.21 110.86c-2.4969-0.0141-5.0089 0.9707-6.4022 2.8675-0.86579 1.1787-1.428 2.531-1.7306 3.9579-0.38109 1.7965-0.35533 3.7172 0.6165 5.2917-2.9165 0.23018-5.8082 0.8498-8.7313 1.0346-1.3992 0.0884-2.6837-0.20084-2.7848-1.8293-0.20627-3.3226 2.3556-3.1347 4.2881-4.7594 0.632-0.53135 0.64672-1.3855 0-1.9224-0.74399-0.61763-1.9294-0.46061-2.8262-0.46096-2.3748-9.1e-4 -6.2598-0.45697-8.4512 0.46096-2.903 1.216 1.2112 1.9556 2.1012 2.0727 0.70787 0.0932 1.4037 0.11016 2.1167 0.11213 0 1.4677 0.41657 3.7678-0.66508 4.9444-1.0539 1.1465-2.6691 0.53925-3.3037 2.1993 1.1125 0.5839 3.0147 0.75909 3.6969 1.9089 0.59884 1.0092 0.27182 2.7808 0.27182 3.9119 0 3.3802 0.07195 6.963-0.31058 10.319-0.30337 2.6614-2.2382 1.8796-3.8385 3.2132-0.84349 0.70293-0.4704 1.639 0.46044 1.9875 2.211 0.8278 5.8667 0.60111 8.1866 0.30696 0.84712-0.10742 2.1018-0.48758 2.1456-1.5358 0.0664-1.5881-3.5731-1.595-4.1109-3.4437-0.8981-3.0875-0.15141-7.3712-0.15141-10.582 0-1.1293-0.28242-2.7209 0.6134-3.5894 1.0019-0.97137 3.3614-0.87715 4.6783-0.90848 3.5089-0.0835 7.0665-0.93621 10.583-0.4532 3.8598 0.53012 11.721 4.2133 10.704 9.1844-0.88067 4.3043-7.3704 7.7593-11.498 6.3216-2.1217-0.73903-1.9294-2.5035-3.3466-3.7806-0.58377-0.52612-1.9243-0.62904-2.3136 0.18913-1.3859 2.9134 3.1289 6.2712 5.3955 6.8218 3.6713 0.89184 10.423-0.3815 13.042-3.2887 1.2184-1.3526 1.6792-3.4751 2.0691-5.2048 0.37902-1.6812 0.54169-3.9767-0.25166-5.5557-1.954-3.8892-7.7816-3.3964-9.5674-7.1443 3.4042-0.78981 8.0202-5.7456 5.6245-9.5209-1.3316-2.0983-3.8133-3.1112-6.3102-3.1254zm1.6082 3.1755c1.8893-6.8e-4 2.6105 1.9015 1.7162 3.6463-1.0461 2.0409-3.8527 3.7366-6.0782 3.9264-2.6974 0.22996-3.8013-2.1942-2.2133-4.407 1.4874-2.0726 3.7086-2.8203 6.182-3.1394 0.1362-0.0176 0.2673-0.0263 0.39326-0.0264z" fill="#070707"/>
 </g>
</svg>
