<?xml version="1.0" encoding="UTF-8"?>
<!-- Created with Inkscape (http://www.inkscape.org/) -->
<svg width="154.16" height="119.71" version="1.1" viewBox="-20.4 -15.841 40.794 31.677" xmlns="http://www.w3.org/2000/svg">
 <g transform="translate(-82.309 -149.19)">
  <path d="m101.91 157.19c3.1e-4 -2.844 0.89541-5.6191 0.78313-8.4667-0.0373-0.94506-0.1041-2.4622-1.3278-2.5566-2.2634-0.17473-1.9675 2.3577-3.0874 3.4553-0.73006 0.71549-2.3164 0.42893-3.2471 0.42402-0.7809-4e-3 -1.8669 0.0929-2.3739-0.6437-0.52002-0.75555-0.28937-2.1903-0.26805-3.0603 0.0665-2.7153 1.638-9.2524-0.85704-11.185-1.6226-1.2566-4.639-0.7217-6.5552-0.7217-5.1337 0-10.228-0.50436-15.346-0.52937-2.0021-0.01-5.4861-1.6754-6.5082 0.80558-0.91125 2.2119-1.4923 6.0948-1.0777 8.455 0.18272 1.0403 1.1108 3.1015 2.4986 2.1938 2.4498-1.6022-0.8732-5.541 1.9239-7.2372 1.449-0.87867 3.6609-0.51284 5.28-0.51284h12.171c1.5116 0 4.3676-0.47356 5.2843 1.0965 0.62782 1.0752 0.27194 2.9918 0.27194 4.1952 0 3.7085-0.10643 8.4103-5.2868 7.0596-1.7434-0.45458-0.9734-2.2252-2.0532-3.0833-0.76808-0.61042-2.0959-0.0973-2.3114 0.81497-0.20959 0.88701-0.016 1.9555-0.13842 2.8816l-0.29888 2.1167c-0.1499 1.0792-0.24686 3.9481 1.7718 2.5974 0.74678-0.49964 0.61666-1.602 1.257-2.2181 1.2807-1.2324 5.0209-0.95847 6.0697 0.47099 0.94018 1.2814 0.97447 6.4238-0.41301 7.433-1.4001 1.0184-5.5624-0.79897-4.5269 2.8134 0.44545 1.554 2.1583 0.59399 3.2842 0.64431 2.4108 0.10773 7.8454 1.6475 9.6258-0.7023 0.51081-0.67418 0.27569-1.5655-0.42587-1.9956-1.3304-0.81556-2.9264 0.0662-3.8244-1.6465-1.661-3.1679-0.37728-8.9152 4.1492-6.8755 2.7331 1.2315 2.0914 3.974 5.5565 3.9767" fill="#070707"/>
 </g>
</svg>
