<?xml version="1.0" encoding="UTF-8"?>
<!-- Created with Inkscape (http://www.inkscape.org/) -->
<svg width="39.819mm" height="24.82mm" version="1.1" viewBox="19.91 12.41 39.819 24.82" xmlns="http://www.w3.org/2000/svg">
 <g transform="translate(-45.971 -131)">
  <path d="m67.748 143.41c-0.37053-0.0125-0.7324 0.0659-1.034 0.27286-1.3276 0.91072-0.7158 5.205-0.53175 6.6068 0.84752 6.4548 0.84831 10.289 6.5024 14.713 7.7863 6.093 18.848 2.3594 26.458-1.4185 1.6876-0.83774 4.3124-1.1732 5.7102-2.4081 1.4988-1.3241 0.89979-3.7258-0.94878-4.2566-3.4895-1.002-7.0775-0.83011-10.582-1.4609-5.3672-0.96596-12.375-3.5482-17.198-6.0932-2.5716-1.3569-4.4883-3.5019-6.69-5.3113-0.42693-0.35086-1.0686-0.62361-1.6862-0.64441zm2.4097 5.8648c0.85685-0.0202 1.7953 0.57438 2.3394 1.1136 1.9402 1.923 4.609 2.6878 7.0668 3.8091 1.0353 0.47233 2.5941 0.85861 3.1636 1.941 0.70875 1.347-0.64029 2.9262-0.94775 4.2054-0.27738 1.1541 0.10312 4.0929-1.1968 4.5925-1.0654 0.4094-2.9321-0.28816-3.9295-0.69195-3.7575-1.5212-6.9776-5.259-7.5597-9.1922-0.19184-1.296-1.1459-4.9578 0.48989-5.657 0.18322-0.0783 0.37639-0.11576 0.57413-0.12041zm20.401 8.5638c1.967 0.0121 4.458 0.75541 5.9381 1.0899 0.74968 0.16937 3.1202 0.33092 3.1202 1.4232 0 0.94209-1.6521 1.4025-2.3265 1.6914-2.5458 1.0906-4.9104 2.7806-7.6729 3.2122-0.93148 0.14557-3.743 0.40156-2.6458-1.2072v-0.26458c-0.64588-1.0068-0.19668-2.0692 0.79375-2.6458-0.61682-2.592 0.82613-3.3111 2.7931-3.299z" fill="#070707"/>
 </g>
</svg>
