<?xml version="1.0" encoding="UTF-8" standalone="no"?>
<svg
   xmlns:dc="http://purl.org/dc/elements/1.1/"
   xmlns:cc="http://creativecommons.org/ns#"
   xmlns:rdf="http://www.w3.org/1999/02/22-rdf-syntax-ns#"
   xmlns="http://www.w3.org/2000/svg"
   xmlns:xlink="http://www.w3.org/1999/xlink"
   xmlns:sodipodi="http://sodipodi.sourceforge.net/DTD/sodipodi-0.dtd"
   xmlns:inkscape="http://www.inkscape.org/namespaces/inkscape"
   width="576" height="1010" viewBox="-2 2 288 505">
  <metadata>
    <rdf:RDF>
      <cc:Work rdf:about="">
        <dc:format>image/svg+xml</dc:format>
        <dc:type rdf:resource="http://purl.org/dc/dcmitype/StillImage"/>
        <dc:title>Kabbalistic Tree of Life with Hebrew names of sephiroth and "flaming sword" in yellow.</dc:title>
      </cc:Work>
    </rdf:RDF>
  </metadata>
  <title>Kabbalistic Tree of Life with Hebrew names of sephiroth and "flaming sword" in yellow.</title>
  <defs>
  <g id="Sephiroth">
    <circle cx="35.2041" cy="312.031" r="34.2186"/>
    <circle cx="36.179" cy="218.431" r="34.2186"/>
    <circle cx="35.2041" cy="124.831" r="34.2186"/>
    <circle cx="142.454" cy="66.3313" r="34.2186"/>
    <circle cx="248.728" cy="123.856" r="34.2186"/>
    <circle cx="248.728" cy="218.431" r="34.2186"/>
    <circle cx="248.728" cy="312.031" r="34.2186"/>
    <circle cx="141.479" cy="257.431" r="34.2186"/>
    <circle cx="142.454" cy="352.006" r="34.2186"/>
    <circle cx="142.454" cy="446.581" r="34.2186"/>
  </g>
  </defs>
  <g style="opacity: 1; fill: rgb(255, 255, 255); fill-opacity: 1; fill-rule: nonzero; stroke: none;">
    <use xlink:href="#Sephiroth"/>
    <circle style="fill-opacity: 0.4" cx="141.479" cy="163.831" r="34.2186"/>
  </g>
  <path
     style="fill: none; fill-rule: evenodd; stroke: rgb(237, 224, 8); stroke-width: 4; stroke-linecap: round; stroke-linejoin: round; stroke-opacity: 1; fill-opacity: 1; stroke-miterlimit: 4; stroke-dasharray: none;"
     d="M 142.35,507 L 143.325,351.975 L 36.075,312 L 248.625,312.975 L 37.05,219.375 L 248.625,219.375 L 37.05,124.8 L 247.65,124.8 L 142.35,64.35 L 143.325,-0.975"
     id="path3274" />
  <g style="opacity: 1; fill: none; fill-opacity: 1; fill-rule: nonzero; stroke: rgb(0, 0, 0); stroke-width: 3.30743; stroke-linecap: round; stroke-linejoin: bevel; stroke-miterlimit: 4; stroke-dasharray: none; stroke-dashoffset: 0pt; stroke-opacity: 1;">
    <use xlink:href="#Sephiroth"/>
    <circle style="stroke:#a9a6a6" cx="141.479" cy="163.831" r="34.2186"/>
  </g>
  <path
     style="fill: none; fill-rule: evenodd; stroke: rgb(0, 0, 0); stroke-width: 1.5; stroke-linecap: butt; stroke-linejoin: miter; stroke-opacity: 1; stroke-miterlimit: 4; stroke-dasharray: none;"
     d="M 161.85,418.275 L 226.2,339.3M 216.45,324.675 L 174.525,343.2M 216.45,298.35 L 168.675,275.925M 216.45,231.075 L 175.5,251.55M 161.85,229.125 L 227.175,150.15M 67.275,124.8 L 213.525,123.825M 111.15,82.875 L 63.375,109.2M 141.375,101.4 L 142.35,222.3M 57.525,151.125 L 122.85,230.1M 66.3,232.05 L 109.2,251.55M 112.125,274.95 L 64.35,294.45M 141.375,292.5 L 141.375,317.85M 67.275,312 L 214.5,312M 66.3,322.725 L 111.15,340.275M 55.575,338.325 L 123.825,418.275 M142.454,386.225V412.362"/>
  <text
     xml:space="preserve"
     style="font-size:18.49357986px;font-style:normal;font-variant:normal;font-weight:normal;font-stretch:normal;text-align:start;line-height:100%;text-anchor:start;fill:#000000;fill-opacity:1;stroke:none;stroke-width:1px;stroke-linecap:butt;stroke-linejoin:miter;stroke-opacity:1;font-family:Times New Roman"
     sodipodi:linespacing="100%"
     transform="scale(0.937496,1.0666712)"><tspan
       sodipodi:role="line"
       id="tspan3188"
       x="148.60829"
       y="83.421906"
       style="font-size:11.99998665px;font-style:normal;font-variant:normal;font-weight:normal;font-stretch:normal;text-align:start;line-height:100%;writing-mode:lr-tb;text-anchor:start;font-family:Times New Roman;-inkscape-font-specification:Times New Roman">1</tspan></text>
  <text
     xml:space="preserve"
     style="font-size:12px;font-style:normal;font-variant:normal;font-weight:normal;font-stretch:normal;text-align:start;line-height:125%;writing-mode:lr-tb;text-anchor:start;fill:#000000;fill-opacity:1;stroke:none;stroke-width:1px;stroke-linecap:butt;stroke-linejoin:miter;stroke-opacity:1;font-family:Times New Roman;-inkscape-font-specification:Times New Roman"
     sodipodi:linespacing="125%"
     transform="scale(0.937496,1.0666712)"><tspan
       sodipodi:role="line"
       id="tspan3192"
       x="262.91174"
       y="139.1042">2</tspan></text>
  <text
     xml:space="preserve"
     style="font-size:18.49357986px;font-style:normal;font-variant:normal;font-weight:normal;font-stretch:normal;text-align:start;line-height:100%;text-anchor:start;fill:#000000;fill-opacity:1;stroke:none;stroke-width:1px;stroke-linecap:butt;stroke-linejoin:miter;stroke-opacity:1;font-family:Times New Roman"
     sodipodi:linespacing="100%"
     transform="scale(0.937496,1.0666712)"><tspan
       sodipodi:role="line"
       id="tspan3196"
       x="34.545044"
       y="141.97855"
       style="font-size:12px;font-style:normal;font-variant:normal;font-weight:normal;font-stretch:normal;text-align:start;line-height:100%;writing-mode:lr-tb;text-anchor:start;font-family:Times New Roman;-inkscape-font-specification:Times New Roman">3</tspan></text>
  <text
     xml:space="preserve"
     style="font-size:12px;font-style:normal;font-variant:normal;font-weight:normal;font-stretch:normal;text-align:start;line-height:125%;writing-mode:lr-tb;text-anchor:start;fill:#000000;fill-opacity:1;stroke:none;stroke-width:1px;stroke-linecap:butt;stroke-linejoin:miter;stroke-opacity:1;font-family:Times New Roman;-inkscape-font-specification:Times New Roman"
     sodipodi:linespacing="125%"
     transform="scale(0.937496,1.0666712)"><tspan
       sodipodi:role="line"
       id="tspan3200"
       x="262.34137"
       y="227.07574">4</tspan></text>
  <text
     xml:space="preserve"
     style="font-size:12px;font-style:normal;font-variant:normal;font-weight:normal;font-stretch:normal;text-align:start;line-height:125%;text-anchor:start;fill:rgb(0, 0, 0);fill-opacity:1;stroke:none;stroke-width:1px;stroke-linecap:butt;stroke-linejoin:miter;stroke-opacity:1;font-family:Times New Roman;-inkscape-font-specification:Times New Roman;writing-mode:lr"
     sodipodi:linespacing="125%"
     transform="scale(0.937495, 1.06667)"><tspan
       sodipodi:role="line"
       id="tspan3204"
       x="33.9502"
       y="226.446">5</tspan></text>
  <text
     xml:space="preserve"
     style="font-size:12px;font-style:normal;font-variant:normal;font-weight:normal;font-stretch:normal;text-align:start;line-height:125%;writing-mode:lr-tb;text-anchor:start;fill:#000000;fill-opacity:1;stroke:none;stroke-width:1px;stroke-linecap:butt;stroke-linejoin:miter;stroke-opacity:1;font-family:Times New Roman;-inkscape-font-specification:Times New Roman"
     sodipodi:linespacing="125%"
     transform="scale(0.937496,1.0666712)"><tspan
       sodipodi:role="line"
       id="tspan3208"
       x="148.00818"
       y="261.7247">6</tspan></text>
  <text
     xml:space="preserve"
     style="font-size:12px;font-style:normal;font-variant:normal;font-weight:normal;font-stretch:normal;text-align:start;line-height:125%;writing-mode:lr-tb;text-anchor:start;fill:#000000;fill-opacity:1;stroke:none;stroke-width:1px;stroke-linecap:butt;stroke-linejoin:miter;stroke-opacity:1;font-family:Times New Roman;-inkscape-font-specification:Times New Roman"
     sodipodi:linespacing="125%"
     transform="scale(0.937496,1.0666712)"><tspan
       sodipodi:role="line"
       id="tspan3212"
       x="260.85449"
       y="321.38971">7</tspan></text>
  <text
     xml:space="preserve"
     style="font-size:12px;font-style:normal;font-variant:normal;font-weight:normal;font-stretch:normal;text-align:start;line-height:125%;writing-mode:lr-tb;text-anchor:start;fill:#000000;fill-opacity:1;stroke:none;stroke-width:1px;stroke-linecap:butt;stroke-linejoin:miter;stroke-opacity:1;font-family:Times New Roman;-inkscape-font-specification:Times New Roman"
     sodipodi:linespacing="125%"
     transform="scale(0.937496,1.0666712)"><tspan
       sodipodi:role="line"
       id="tspan3216"
       x="34.11684"
       y="317.49069">8</tspan></text>
  <text
     xml:space="preserve"
     style="font-size:12px;font-style:normal;font-variant:normal;font-weight:normal;font-stretch:normal;text-align:start;line-height:125%;writing-mode:lr-tb;text-anchor:start;fill:#000000;fill-opacity:1;stroke:none;stroke-width:1px;stroke-linecap:butt;stroke-linejoin:miter;stroke-opacity:1;font-family:Times New Roman;-inkscape-font-specification:Times New Roman"
     sodipodi:linespacing="125%"
     transform="scale(0.937496,1.0666712)"><tspan
       sodipodi:role="line"
       id="tspan3224"
       x="148.41423"
       y="354.97333">9</tspan></text>
  <text
     xml:space="preserve"
     style="font-size:12px;font-style:normal;font-variant:normal;font-weight:normal;font-stretch:normal;text-align:start;line-height:125%;writing-mode:lr-tb;text-anchor:start;fill:#000000;fill-opacity:1;stroke:none;stroke-width:1px;stroke-linecap:butt;stroke-linejoin:miter;stroke-opacity:1;font-family:Times New Roman;-inkscape-font-specification:Times New Roman"
     sodipodi:linespacing="125%"
     transform="scale(0.937496,1.0666712)"><tspan
       sodipodi:role="line"
       id="tspan3228"
       x="146.30354"
       y="443.16156">10</tspan></text>
  <text
     xml:space="preserve"
     style="font-size:16.24146843px;font-style:normal;font-variant:normal;font-weight:normal;font-stretch:normal;text-align:start;line-height:100%;text-anchor:start;fill:#000000;fill-opacity:1;stroke:none;stroke-width:1px;stroke-linecap:butt;stroke-linejoin:miter;stroke-opacity:1;font-family:Times New Roman"
     sodipodi:linespacing="100%"
     transform="scale(0.9271689,1.0785522)"><tspan
       sodipodi:role="line"
       id="tspan3232"
       x="136.81131"
       y="47.344952"
       style="font-size:12px;font-style:normal;font-variant:normal;font-weight:normal;font-stretch:normal;text-align:start;line-height:100%;writing-mode:lr-tb;text-anchor:start;font-family:Times New Roman;-inkscape-font-specification:Times New Roman">Kether</tspan></text>
  <text
     xml:space="preserve"
     style="font-size:12px;font-style:normal;font-variant:normal;font-weight:normal;font-stretch:normal;text-align:start;line-height:125%;writing-mode:lr-tb;text-anchor:start;fill:#000000;fill-opacity:1;stroke:none;stroke-width:1px;stroke-linecap:butt;stroke-linejoin:miter;stroke-opacity:1;font-family:Times New Roman;-inkscape-font-specification:Times New Roman"
     sodipodi:linespacing="125%"
     transform="scale(0.8774931,1.1396101)"><tspan
       sodipodi:role="line"
       id="tspan3236"
       x="257.45569"
       y="95.841774">Chokhmah</tspan></text>
  <text
     xml:space="preserve"
     style="font-size:16.24146843px;font-style:normal;font-variant:normal;font-weight:normal;font-stretch:normal;text-align:start;line-height:100%;text-anchor:start;fill:#000000;fill-opacity:1;stroke:none;stroke-width:1px;stroke-linecap:butt;stroke-linejoin:miter;stroke-opacity:1;font-family:Times New Roman"
     sodipodi:linespacing="100%"
     transform="scale(0.9271689,1.0785522)"><tspan
       sodipodi:role="line"
       id="tspan3240"
       x="23.311983"
       y="98.303665"
       style="font-size:12px;font-style:normal;font-variant:normal;font-weight:normal;font-stretch:normal;text-align:start;line-height:100%;writing-mode:lr-tb;text-anchor:start;font-family:Times New Roman;-inkscape-font-specification:Times New Roman">Binah</tspan></text>
  <text
     xml:space="preserve"
     style="font-size:16.24146843px;font-style:normal;font-variant:normal;font-weight:normal;font-stretch:normal;text-align:start;line-height:125%;text-anchor:start;fill:#999999;fill-opacity:1;stroke:none;stroke-width:1px;stroke-linecap:butt;stroke-linejoin:miter;stroke-opacity:1;font-family:Times New Roman"
     sodipodi:linespacing="125%"
     transform="scale(0.9271689,1.0785522)"><tspan
       sodipodi:role="line"
       id="tspan3244"
       x="131.97597"
       y="140.56322">Daath</tspan></text>
  <text
     xml:space="preserve"
     style="font-size:12px;font-style:normal;font-variant:normal;font-weight:normal;font-stretch:normal;text-align:start;line-height:125%;writing-mode:lr-tb;text-anchor:start;fill:#000000;fill-opacity:1;stroke:none;stroke-width:1px;stroke-linecap:butt;stroke-linejoin:miter;stroke-opacity:1;font-family:Times New Roman;-inkscape-font-specification:Times New Roman"
     sodipodi:linespacing="125%"
     transform="scale(0.9271689,1.0785522)"><tspan
       sodipodi:role="line"
       id="tspan3248"
       x="17.880791"
       y="189.47121">Geburah</tspan></text>
  <text
     xml:space="preserve"
     style="font-size:12px;font-style:normal;font-variant:normal;font-weight:normal;font-stretch:normal;text-align:start;line-height:125%;writing-mode:lr-tb;text-anchor:start;fill:#000000;fill-opacity:1;stroke:none;stroke-width:1px;stroke-linecap:butt;stroke-linejoin:miter;stroke-opacity:1;font-family:Times New Roman;-inkscape-font-specification:Times New Roman"
     sodipodi:linespacing="125%"
     transform="scale(0.9271689,1.0785522)"><tspan
       sodipodi:role="line"
       id="tspan3252"
       x="250.28972"
       y="189.3782">Chesed</tspan></text>
  <text
     xml:space="preserve"
     style="font-size:12px;font-style:normal;font-variant:normal;font-weight:normal;font-stretch:normal;text-align:start;line-height:125%;writing-mode:lr-tb;text-anchor:start;fill:#000000;fill-opacity:1;stroke:none;stroke-width:1px;stroke-linecap:butt;stroke-linejoin:miter;stroke-opacity:1;font-family:Times New Roman;-inkscape-font-specification:Times New Roman"
     sodipodi:linespacing="125%"
     transform="scale(0.9271689,1.0785522)"><tspan
       sodipodi:role="line"
       id="tspan3256"
       x="130.07407"
       y="227.75256">Tiphareth</tspan></text>
  <text
     xml:space="preserve"
     style="font-size:12px;font-style:normal;font-variant:normal;font-weight:normal;font-stretch:normal;text-align:start;line-height:125%;writing-mode:lr-tb;text-anchor:start;fill:#000000;fill-opacity:1;stroke:none;stroke-width:1px;stroke-linecap:butt;stroke-linejoin:miter;stroke-opacity:1;font-family:Times New Roman;-inkscape-font-specification:Times New Roman"
     sodipodi:linespacing="125%"
     transform="scale(0.9271689,1.0785522)"><tspan
       sodipodi:role="line"
       id="tspan3260"
       x="27.09491"
       y="275.11865">Hod</tspan></text>
  <text
     xml:space="preserve"
     style="font-size:12px;font-style:normal;font-variant:normal;font-weight:normal;font-stretch:normal;text-align:start;line-height:125%;writing-mode:lr-tb;text-anchor:start;fill:#000000;fill-opacity:1;stroke:none;stroke-width:1px;stroke-linecap:butt;stroke-linejoin:miter;stroke-opacity:1;font-family:Times New Roman;-inkscape-font-specification:Times New Roman"
     sodipodi:linespacing="125%"
     transform="scale(0.9271689,1.0785522)"><tspan
       sodipodi:role="line"
       id="tspan3264"
       x="135.10466"
       y="313.20291">Yesod</tspan></text>
  <text
     xml:space="preserve"
     style="font-size:12px;font-style:normal;font-variant:normal;font-weight:normal;font-stretch:normal;text-align:start;line-height:125%;writing-mode:lr-tb;text-anchor:start;fill:#000000;fill-opacity:1;stroke:none;stroke-width:1px;stroke-linecap:butt;stroke-linejoin:miter;stroke-opacity:1;font-family:Times New Roman;-inkscape-font-specification:Times New Roman"
     sodipodi:linespacing="125%"
     transform="scale(0.9271689,1.0785522)"><tspan
       sodipodi:role="line"
       id="tspan3268"
       x="249.21336"
       y="274.79263">Netzach</tspan></text>
  <text
     xml:space="preserve"
     style="font-size:12px;font-style:normal;font-variant:normal;font-weight:normal;font-stretch:normal;text-align:start;line-height:125%;writing-mode:lr-tb;text-anchor:start;fill:#000000;fill-opacity:1;stroke:none;stroke-width:1px;stroke-linecap:butt;stroke-linejoin:miter;stroke-opacity:1;font-family:Times New Roman;-inkscape-font-specification:Times New Roman"
     sodipodi:linespacing="125%"
     transform="scale(0.9271689,1.0785522)"><tspan
       sodipodi:role="line"
       id="tspan3272"
       x="133.8586"
       y="402.30249">Malkuth</tspan></text>
  <path
     style="fill: none; fill-rule: evenodd; stroke: rgb(0, 0, 0); stroke-width: 1.5; stroke-linecap: butt; stroke-linejoin: miter; stroke-opacity: 1; stroke-miterlimit: 4; stroke-dasharray: none;"
     d="M 218.4,108.225 L 172.575,82.875"
     id="path3164" />
  <path
     style="fill: none; fill-rule: evenodd; stroke: rgb(0, 0, 0); stroke-width: 1.5; stroke-linecap: butt; stroke-linejoin: miter; stroke-opacity: 1; stroke-miterlimit: 4; stroke-dasharray: none;"
     d="M 35.120192,159.9 L 35.1,184.275"
     id="path3276"
     sodipodi:nodetypes="cc" />
  <path
     style="fill: none; fill-rule: evenodd; stroke: rgb(0, 0, 0); stroke-width: 1.5; stroke-linecap: butt; stroke-linejoin: miter; stroke-opacity: 1; stroke-miterlimit: 4; stroke-dasharray: none;"
     d="M 35.157692,252.525 L 35.1,277.875"
     id="path3278"
     sodipodi:nodetypes="cc" />
  <path
     style="fill: none; fill-rule: evenodd; stroke: rgb(0, 0, 0); stroke-width: 1.5; stroke-linecap: butt; stroke-linejoin: miter; stroke-opacity: 1; stroke-miterlimit: 4; stroke-dasharray: none;"
     d="M 248.63106,252.525 L 248.625,277.875"
     id="path3280"
     sodipodi:nodetypes="cc" />
  <path
     style="fill: none; fill-rule: evenodd; stroke: rgb(0, 0, 0); stroke-width: 1.5; stroke-linecap: butt; stroke-linejoin: miter; stroke-opacity: 1; stroke-miterlimit: 4; stroke-dasharray: none;"
     d="M 248.625,156.975 L 248.625,184.275"
     id="path3282" />
  <path
     style="fill: none; fill-rule: evenodd; stroke: rgb(0, 0, 0); stroke-width: 1px; stroke-linecap: butt; stroke-linejoin: miter; stroke-opacity: 1;"
     d="M 69.225,218.4 L 213.525,218.4"
     id="path3284" />
  <path
     transform="translate(451.42501,-371.07501)"
     style="font-size:40px;font-style:normal;font-weight:normal;fill:#000000;fill-opacity:1;stroke:none;stroke-width:1px;stroke-linecap:butt;stroke-linejoin:miter;stroke-opacity:1;font-family:Bitstream Vera Sans"
     d="M -294.59375,445.40101 L -299.73438,445.40101 L -299,442.21351 L -293.07812,442.21351 C -290.59897,442.21352 -289.35939,440.65623 -289.35938,437.54164 C -289.34897,435.46873 -289.63543,434.08332 -290.21875,433.38539 C -290.80209,432.68748 -291.64063,432.33853 -292.73438,432.33851 L -297.03125,432.33851 C -298.51042,432.33853 -299.25,431.68228 -299.25,430.36976 C -299.25,429.40103 -298.93229,428.54686 -298.29688,427.80726 L -297.89062,427.80726 C -297.72396,428.53645 -297.20313,428.90103 -296.32812,428.90101 L -293.10938,428.90101 C -289.8073,428.90103 -288.15626,431.60415 -288.15625,437.01039 C -288.15626,439.06248 -288.32814,440.69268 -288.67188,441.90101 C -289.01564,443.10935 -289.6823,443.99476 -290.67188,444.55726 C -291.66147,445.11976 -292.96876,445.40101 -294.59375,445.40101 L -294.59375,445.40101 z M -303.42188,445.66664 L -303.75,445.55726 L -303.75,437.99476 C -303.75001,436.23436 -303.8021,435.05206 -303.90625,434.44789 C -304.01043,433.84373 -304.3047,433.34113 -304.78906,432.94008 C -305.27345,432.53905 -306.01043,432.33853 -307,432.33851 L -310.5,432.33851 L -311.15625,433.74476 C -311.80209,435.15102 -312.125,436.33331 -312.125,437.29164 C -312.125,437.74998 -312.0573,438.63019 -311.92188,439.93226 C -311.52605,441.91143 -311.34376,443.11977 -311.375,443.55726 L -311.46875,445.40101 L -316.01562,445.40101 L -315.35938,442.21351 L -313.39062,442.21351 L -313.48438,439.15101 C -313.55729,437.04685 -313.17188,435.28644 -312.32812,433.86976 L -311.42188,432.33851 L -312.03125,432.33851 C -313.625,432.33853 -314.42188,431.68228 -314.42188,430.36976 C -314.42188,429.39061 -314.09896,428.53645 -313.45312,427.80726 L -313.03125,427.80726 C -312.85417,428.53645 -312.33334,428.90103 -311.46875,428.90101 L -307.98438,428.90101 C -305.57814,428.90103 -304.02345,429.24738 -303.32031,429.94008 C -302.6172,430.6328 -302.26564,432.15103 -302.26562,434.49476 L -302.26562,443.72914 C -302.26564,444.63539 -302.65106,445.28122 -303.42188,445.66664 L -303.42188,445.66664 z M -319.375,445.69789 L -319.70312,445.58851 L -319.70312,437.99476 C -319.70314,435.93227 -319.81512,434.61457 -320.03906,434.04164 C -320.26303,433.46873 -320.63282,433.04165 -321.14844,432.76039 C -321.66407,432.47915 -322.32293,432.33853 -323.125,432.33851 L -328.23438,432.33851 C -329.73438,432.33853 -330.48438,431.68228 -330.48438,430.36976 C -330.48438,429.40103 -330.16667,428.54686 -329.53125,427.80726 L -329.125,427.80726 C -328.95834,428.53645 -328.4375,428.90103 -327.5625,428.90101 L -324.01562,428.90101 C -321.6198,428.90103 -320.06512,429.24999 -319.35156,429.94789 C -318.63803,430.64582 -318.28126,432.16144 -318.28125,434.49476 L -318.28125,444.15101 C -318.28126,444.79685 -318.64585,445.31247 -319.375,445.69789 L -319.375,445.69789 z"
     id="flowRoot2585" />
  <path
     style="font-size:40px;font-style:normal;font-weight:normal;line-height:125%;fill:#000000;fill-opacity:1;stroke:none;stroke-width:1px;stroke-linecap:butt;stroke-linejoin:miter;stroke-opacity:1;font-family:Bitstream Vera Sans"
     d="M 57.38125,134.31935 L 44.896875,134.31935 L 45.50625,131.13185 L 54.85,131.13185 C 55.110406,129.77769 55.240614,128.10582 55.240625,126.11623 C 55.240614,124.19957 55.076552,122.91051 54.748438,122.24904 C 54.420303,121.58759 53.490616,121.25686 51.959375,121.25685 L 47.709375,121.25685 C 46.15729,121.25686 45.381249,120.60061 45.38125,119.2881 C 45.381249,118.31937 45.698957,117.4652 46.334375,116.7256 L 46.740625,116.7256 C 46.907289,117.45478 47.428122,117.81937 48.303125,117.81935 L 51.2875,117.81935 C 53.089575,117.81937 54.336969,118.01728 55.029688,118.4131 C 55.722385,118.80895 56.175509,119.3402 56.389063,120.00685 C 56.602592,120.67353 56.709363,121.83499 56.709375,123.49123 L 56.709375,125.69435 C 56.709363,128.11102 56.256238,129.92352 55.35,131.13185 L 57.975,131.13185 L 57.38125,134.31935 z M 40.2875,126.8506 L 39.85,126.3506 C 40.954162,125.52769 41.506244,124.38186 41.50625,122.9131 C 41.506244,121.86103 40.730204,121.30374 39.178125,121.24123 C 37.448957,121.17874 36.584374,120.44437 36.584375,119.0381 C 36.584374,118.30895 36.829166,117.49124 37.31875,116.58498 L 37.740625,116.58498 C 37.84479,117.29333 38.318748,117.68395 39.1625,117.75685 L 40.584375,117.8506 C 41.980202,117.95478 42.678118,118.91832 42.678125,120.74123 L 42.678125,121.9131 C 42.678118,124.38186 41.881244,126.02769 40.2875,126.8506 L 40.2875,126.8506 z M 34.00625,134.31935 L 26.303125,134.31935 L 26.959375,131.13185 L 32.19375,131.13185 L 32.06875,128.52248 C 32.027077,127.79332 32.063536,126.66832 32.178125,125.14748 C 32.271869,123.9704 32.318744,123.0902 32.31875,122.50685 C 32.318744,121.7152 31.886453,121.29332 31.021875,121.24123 C 28.719789,121.10582 27.568749,120.38707 27.56875,119.08498 C 27.568749,118.06416 27.886457,117.23083 28.521875,116.58498 L 28.94375,116.58498 C 29.068747,117.27249 29.542705,117.64749 30.365625,117.70998 L 31.63125,117.81935 C 33.04791,117.94437 33.756242,118.66312 33.75625,119.9756 C 33.756242,120.60061 33.662493,121.53811 33.475,122.7881 C 33.287493,124.02769 33.193743,124.96519 33.19375,125.6006 C 33.193743,126.60061 33.261451,127.4079 33.396875,128.02248 C 33.907284,130.30373 34.162492,131.73081 34.1625,132.30373 C 34.162492,133.20998 34.110409,133.88185 34.00625,134.31935 L 34.00625,134.31935 z M 21.771875,134.70998 L 21.521875,134.38185 C 21.792698,133.92352 21.928114,133.37664 21.928125,132.74123 C 21.928114,132.12665 21.886448,131.20477 21.803125,129.9756 C 21.719781,128.73602 21.678114,127.80894 21.678125,127.19435 C 21.678114,124.68394 22.287489,122.70478 23.50625,121.25685 L 14.303125,121.25685 C 12.730207,121.25686 11.943749,120.60061 11.94375,119.2881 C 11.943749,118.26728 12.261457,117.41312 12.896875,116.7256 L 13.31875,116.7256 C 13.485414,117.45478 13.974997,117.81937 14.7875,117.81935 L 22.4125,117.81935 C 23.068738,117.81937 23.568738,117.92874 23.9125,118.14748 C 24.256237,118.36624 24.428112,118.87666 24.428125,119.67873 L 24.428125,120.44435 C 24.428112,120.82978 24.238008,121.33239 23.857813,121.95216 C 23.477592,122.57197 23.287488,123.5329 23.2875,124.83498 C 23.287488,125.58498 23.407279,126.70998 23.646875,128.20998 C 23.886446,129.70998 24.006237,130.83498 24.00625,131.58498 C 24.006237,133.43914 23.261446,134.48081 21.771875,134.70998 L 21.771875,134.70998 z M 12.31875,134.7256 L 12.1,134.38185 C 12.370832,134.1006 12.506249,133.72039 12.50625,133.24123 C 12.506249,132.91831 12.490624,132.42873 12.459375,131.77248 C 12.428124,131.11623 12.412499,130.62665 12.4125,130.30373 C 12.412499,128.12665 13.193748,127.03811 14.75625,127.0381 C 14.964579,127.03811 15.141663,127.07978 15.2875,127.1631 L 15.2875,127.58498 C 14.787496,127.9079 14.537497,128.59019 14.5375,129.63185 C 14.537497,129.97561 14.55833,130.48602 14.6,131.1631 C 14.641663,131.84019 14.662496,132.34539 14.6625,132.67873 C 14.662496,133.94956 13.881247,134.63185 12.31875,134.7256 L 12.31875,134.7256 z"
     id="text2593" />
  <path
     transform="translate(565.78795,-311.4849)"
     style="font-size:40px;font-style:normal;font-weight:normal;fill:#000000;fill-opacity:1;stroke:none;stroke-width:1px;stroke-linecap:butt;stroke-linejoin:miter;stroke-opacity:1;font-family:Bitstream Vera Sans"
     d="M -290.70312,445.79164 L -290.95312,445.46351 C -290.6823,445.05726 -290.54689,444.51039 -290.54688,443.82289 C -290.54689,443.20831 -290.58855,442.28643 -290.67188,441.05726 C -290.75522,439.81769 -290.79689,438.8906 -290.79688,438.27601 C -290.79689,435.74477 -290.19272,433.7604 -288.98438,432.32289 L -296.89062,432.32289 C -297.91146,433.08332 -298.42188,434.33332 -298.42188,436.07289 C -298.42188,436.77081 -298.31771,437.8281 -298.10938,439.24476 C -297.90105,440.65102 -297.79688,441.70831 -297.79688,442.41664 C -297.79688,444.44789 -298.57292,445.57289 -300.125,445.79164 L -300.32812,445.46351 C -299.95313,444.88018 -299.79688,443.95831 -299.85938,442.69789 L -300.0625,438.74476 C -300.1875,436.01561 -299.43229,433.87498 -297.79688,432.32289 C -298.83854,432.31248 -299.55469,432.16405 -299.94531,431.87758 C -300.33594,431.59113 -300.53125,431.08853 -300.53125,430.36976 C -300.53125,429.34895 -300.21354,428.49478 -299.57812,427.80726 L -299.15625,427.80726 C -298.98959,428.53645 -298.47396,428.90103 -297.60938,428.90101 L -290.0625,428.90101 C -289.26043,428.90103 -288.72137,429.04426 -288.44531,429.3307 C -288.16928,429.61717 -288.03647,430.09374 -288.04688,430.76039 C -288.04689,431.62499 -288.24741,432.40103 -288.64844,433.08851 C -289.04949,433.77602 -289.25001,434.71873 -289.25,435.91664 C -289.25001,436.66665 -289.12501,437.79165 -288.875,439.29164 C -288.63543,440.79164 -288.51564,441.91664 -288.51562,442.66664 C -288.51564,444.53122 -289.2448,445.57289 -290.70312,445.79164 L -290.70312,445.79164 z M -309.84375,445.40101 L -314.98438,445.40101 L -314.25,442.21351 L -308.32812,442.21351 C -305.84897,442.21352 -304.60939,440.65623 -304.60938,437.54164 C -304.59897,435.46873 -304.88543,434.08332 -305.46875,433.38539 C -306.05209,432.68748 -306.89063,432.33853 -307.98438,432.33851 L -312.28125,432.33851 C -313.76042,432.33853 -314.5,431.68228 -314.5,430.36976 C -314.5,429.40103 -314.18229,428.54686 -313.54688,427.80726 L -313.14062,427.80726 C -312.97396,428.53645 -312.45313,428.90103 -311.57812,428.90101 L -308.35938,428.90101 C -305.0573,428.90103 -303.40626,431.60415 -303.40625,437.01039 C -303.40626,439.06248 -303.57814,440.69268 -303.92188,441.90101 C -304.26564,443.10935 -304.9323,443.99476 -305.92188,444.55726 C -306.91147,445.11976 -308.21876,445.40101 -309.84375,445.40101 L -309.84375,445.40101 z M -317.875,442.72914 L -318.40625,445.40101 L -326.20312,445.40101 L -325.45312,442.21351 L -318.84375,442.21351 C -318.54168,441.0781 -318.39064,439.7031 -318.39062,438.08851 C -318.38022,436.48436 -318.70574,435.18748 -319.36719,434.19789 C -320.02866,433.20832 -320.97397,432.71873 -322.20312,432.72914 C -323.84897,432.72915 -325.3724,433.77342 -326.77344,435.86195 C -328.17448,437.9505 -328.88542,441.13018 -328.90625,445.40101 L -329.95312,445.40101 C -329.99479,444.86976 -330.01563,444.41664 -330.01562,444.04164 C -330.01563,439.70831 -328.80729,436.21352 -326.39062,433.55726 C -326.39063,433.16144 -326.4948,432.87759 -326.70312,432.7057 C -326.91146,432.53384 -327.39584,432.36457 -328.15625,432.19789 C -329.46875,431.91665 -330.125,431.21874 -330.125,430.10414 C -330.125,429.24999 -329.90625,428.43749 -329.46875,427.66664 L -329.04688,427.66664 C -328.85938,428.30207 -328.45834,428.66665 -327.84375,428.76039 L -326.875,428.90101 C -326.00001,429.02603 -325.56251,429.46874 -325.5625,430.22914 C -325.56251,430.37499 -325.58334,430.59374 -325.625,430.88539 C -325.67709,431.18749 -325.70313,431.41144 -325.70312,431.55726 C -325.70313,431.98436 -325.54167,432.30207 -325.21875,432.51039 C -323.48959,431.54165 -322.54688,430.27082 -322.39062,428.69789 C -320.71355,428.97915 -319.44532,429.92186 -318.58594,431.52601 C -317.72658,433.13019 -317.29689,435.20311 -317.29688,437.74476 C -317.29689,439.16144 -317.4896,440.82289 -317.875,442.72914 L -317.875,442.72914 z M -335.35938,445.79164 L -335.60938,445.46351 C -335.33855,445.00518 -335.20314,444.45831 -335.20312,443.82289 C -335.20314,443.20831 -335.2448,442.28643 -335.32812,441.05726 C -335.41147,439.81769 -335.45314,438.8906 -335.45312,438.27601 C -335.45314,435.76561 -334.84376,433.78644 -333.625,432.33851 L -342.82812,432.33851 C -344.40104,432.33853 -345.1875,431.68228 -345.1875,430.36976 C -345.1875,429.34895 -344.86979,428.49478 -344.23438,427.80726 L -343.8125,427.80726 C -343.64584,428.53645 -343.15625,428.90103 -342.34375,428.90101 L -334.71875,428.90101 C -334.06251,428.90103 -333.56251,429.0104 -333.21875,429.22914 C -332.87501,429.4479 -332.70314,429.95832 -332.70312,430.76039 L -332.70312,431.52601 C -332.70314,431.91144 -332.89324,432.41405 -333.27344,433.03383 C -333.65366,433.65363 -333.84376,434.61457 -333.84375,435.91664 C -333.84376,436.66665 -333.72397,437.79165 -333.48438,439.29164 C -333.2448,440.79164 -333.12501,441.91664 -333.125,442.66664 C -333.12501,444.52081 -333.8698,445.56247 -335.35938,445.79164 L -335.35938,445.79164 z M -344.8125,445.80726 L -345.03125,445.46351 C -344.76042,445.18226 -344.625,444.80206 -344.625,444.32289 C -344.625,443.99997 -344.64063,443.51039 -344.67188,442.85414 C -344.70313,442.19789 -344.71875,441.70831 -344.71875,441.38539 C -344.71875,439.20831 -343.9375,438.11977 -342.375,438.11976 C -342.16667,438.11977 -341.98959,438.16144 -341.84375,438.24476 L -341.84375,438.66664 C -342.34375,438.98956 -342.59375,439.67185 -342.59375,440.71351 C -342.59375,441.05727 -342.57292,441.56768 -342.53125,442.24476 C -342.48959,442.92185 -342.46875,443.42706 -342.46875,443.76039 C -342.46875,445.03122 -343.25,445.71351 -344.8125,445.80726 L -344.8125,445.80726 z"
     id="flowRoot3565" />
  <path
     transform="translate(458.23318,-174.20055)"
     style="font-size:40px;font-style:normal;font-weight:normal;fill:#000000;fill-opacity:1;stroke:none;stroke-width:1px;stroke-linecap:butt;stroke-linejoin:miter;stroke-opacity:1;font-family:Bitstream Vera Sans"
     d="M -288.82422,439.06248 L -289.07031,438.98045 L -289.07031,433.30857 C -289.07032,431.98827 -289.10938,431.10155 -289.1875,430.64842 C -289.26563,430.1953 -289.48634,429.81835 -289.84961,429.51756 C -290.2129,429.21678 -290.76563,429.06639 -291.50781,429.06638 L -294.13281,429.06638 L -294.625,430.12107 C -295.10938,431.17577 -295.35157,432.06249 -295.35156,432.78123 C -295.35157,433.12498 -295.30078,433.78514 -295.19922,434.7617 C -294.90235,436.24607 -294.76563,437.15232 -294.78906,437.48045 L -294.85938,438.86326 L -298.26953,438.86326 L -297.77734,436.47263 L -296.30078,436.47263 L -296.37109,434.17576 C -296.42578,432.59764 -296.13672,431.27733 -295.50391,430.21482 L -294.82422,429.06638 L -295.28125,429.06638 C -296.47656,429.06639 -297.07422,428.57421 -297.07422,427.58982 C -297.07422,426.85546 -296.83203,426.21483 -296.34766,425.66795 L -296.03125,425.66795 C -295.89844,426.21483 -295.50782,426.48827 -294.85938,426.48826 L -292.24609,426.48826 C -290.44141,426.48827 -289.2754,426.74804 -288.74805,427.26756 C -288.22071,427.7871 -287.95704,428.92577 -287.95703,430.68357 L -287.95703,437.60935 C -287.95704,438.28904 -288.2461,438.77342 -288.82422,439.06248 L -288.82422,439.06248 z M -304.5625,438.86326 L -308.21875,438.86326 L -307.66797,436.47263 L -303.42578,436.47263 C -302.37891,436.47264 -301.65235,436.18162 -301.24609,435.59959 C -300.83985,435.01756 -300.63673,434.14061 -300.63672,432.96873 C -300.63673,431.67967 -300.8047,430.70702 -301.14062,430.05076 C -301.47657,429.39452 -302.15235,429.06639 -303.16797,429.06638 L -306.23828,429.06638 C -306.7461,429.38671 -307,429.80077 -307,430.30857 C -307,430.77733 -306.61719,431.08592 -305.85156,431.23435 C -305.09375,431.3828 -304.71485,431.71483 -304.71484,432.23045 L -304.71484,432.87498 C -304.71485,433.12498 -304.84766,433.24998 -305.11328,433.24998 C -305.22266,433.24998 -305.39454,433.23436 -305.62891,433.2031 C -305.85547,433.17186 -306.02735,433.15623 -306.14453,433.15623 C -306.71485,433.15623 -307.16016,433.36327 -307.48047,433.77732 L -307.85547,433.77732 C -308.08203,433.27733 -308.19531,432.71873 -308.19531,432.10154 C -308.19531,430.89061 -307.75781,429.87889 -306.88281,429.06638 L -307.60938,428.53904 C -307.78125,428.35155 -307.86719,428.03515 -307.86719,427.58982 C -307.86719,426.84765 -307.62891,426.20702 -307.15234,425.66795 L -306.84766,425.66795 C -306.71485,426.21483 -306.32422,426.48827 -305.67578,426.48826 L -303.44922,426.48826 C -301.00391,426.48827 -299.78126,428.51561 -299.78125,432.57029 C -299.78126,435.20311 -300.17188,436.91014 -300.95312,437.69138 C -301.73438,438.47264 -302.93751,438.86326 -304.5625,438.86326 L -304.5625,438.86326 z M -310.91406,439.0742 L -311.23047,439.0742 C -311.27735,438.47264 -311.48048,437.96873 -311.83984,437.56248 L -316.92578,431.72654 C -317.79297,432.16405 -318.22657,432.72655 -318.22656,433.41404 C -318.22657,433.9453 -317.94922,434.62889 -317.39453,435.46482 C -316.75391,436.41795 -316.4336,437.17576 -316.43359,437.73826 C -316.4336,438.48826 -316.71875,438.86326 -317.28906,438.86326 L -319.50391,438.86326 L -319.50391,438.54685 C -319.03516,438.42185 -318.80078,438.15232 -318.80078,437.73826 C -318.80078,437.48045 -318.94922,436.96873 -319.24609,436.2031 C -319.54297,435.44529 -319.69141,434.85936 -319.69141,434.44529 C -319.69141,433.18748 -318.91797,432.11717 -317.37109,431.23435 L -318.8125,429.60545 C -319.41406,428.91796 -319.71484,428.20311 -319.71484,427.46092 C -319.71484,426.78905 -319.44141,426.15624 -318.89453,425.56248 L -318.58984,425.56248 C -318.55078,426.24218 -318.34766,426.78905 -317.98047,427.2031 L -313.57422,432.20701 C -313.34766,431.08202 -312.91407,430.03124 -312.27344,429.05467 C -313.51563,428.85155 -314.13673,428.22655 -314.13672,427.17967 C -314.13673,426.56249 -313.97657,426.02343 -313.65625,425.56248 L -313.35156,425.56248 C -313.22657,426.04687 -312.92579,426.34765 -312.44922,426.46482 L -311.44141,426.6992 C -310.5586,426.91015 -310.1172,427.40624 -310.11719,428.18748 C -310.1172,428.53124 -310.15235,428.80858 -310.22266,429.01951 C -310.48048,429.09764 -310.90626,429.13671 -311.5,429.1367 C -312.31251,430.41796 -312.71876,431.46483 -312.71875,432.27732 C -312.71876,432.87889 -312.51173,433.41795 -312.09766,433.89451 L -311.00781,435.14842 C -310.39845,435.84373 -310.09376,436.56248 -310.09375,437.30467 C -310.09376,437.97654 -310.3672,438.56638 -310.91406,439.0742 L -310.91406,439.0742 z M -322.96094,439.08592 L -323.20703,439.00388 L -323.20703,433.30857 C -323.20704,431.7617 -323.29102,430.77342 -323.45898,430.34373 C -323.62696,429.91405 -323.90431,429.59374 -324.29102,429.38279 C -324.67774,429.17186 -325.17188,429.06639 -325.77344,429.06638 L -329.60547,429.06638 C -330.73047,429.06639 -331.29297,428.57421 -331.29297,427.58982 C -331.29297,426.86327 -331.05469,426.22265 -330.57812,425.66795 L -330.27344,425.66795 C -330.14844,426.21483 -329.75781,426.48827 -329.10156,426.48826 L -326.44141,426.48826 C -324.64454,426.48827 -323.47852,426.74999 -322.94336,427.27342 C -322.40821,427.79686 -322.14063,428.93358 -322.14062,430.68357 L -322.14062,437.92576 C -322.14063,438.41014 -322.41407,438.79685 -322.96094,439.08592 L -322.96094,439.08592 z M -334.24609,439.06248 L -334.49219,438.98045 L -334.49219,433.30857 C -334.4922,431.98827 -334.53126,431.10155 -334.60938,430.64842 C -334.68751,430.1953 -334.90821,429.81835 -335.27148,429.51756 C -335.63477,429.21678 -336.18751,429.06639 -336.92969,429.06638 L -339.55469,429.06638 L -340.04688,430.12107 C -340.53125,431.17577 -340.77344,432.06249 -340.77344,432.78123 C -340.77344,433.12498 -340.72266,433.78514 -340.62109,434.7617 C -340.32422,436.24607 -340.1875,437.15232 -340.21094,437.48045 L -340.28125,438.86326 L -343.69141,438.86326 L -343.19922,436.47263 L -341.72266,436.47263 L -341.79297,434.17576 C -341.84766,432.59764 -341.5586,431.27733 -340.92578,430.21482 L -340.24609,429.06638 L -340.70312,429.06638 C -341.89844,429.06639 -342.4961,428.57421 -342.49609,427.58982 C -342.4961,426.85546 -342.25391,426.21483 -341.76953,425.66795 L -341.45312,425.66795 C -341.32032,426.21483 -340.92969,426.48827 -340.28125,426.48826 L -337.66797,426.48826 C -335.86329,426.48827 -334.69728,426.74804 -334.16992,427.26756 C -333.64259,427.7871 -333.37892,428.92577 -333.37891,430.68357 L -333.37891,437.60935 C -333.37892,438.28904 -333.66798,438.77342 -334.24609,439.06248 L -334.24609,439.06248 z"
     id="flowRoot3573" />
  <path
     transform="translate(350.64946,-215.29315)"
     style="font-size:40px;font-style:normal;font-weight:normal;fill:#000000;fill-opacity:1;stroke:none;stroke-width:1px;stroke-linecap:butt;stroke-linejoin:miter;stroke-opacity:1;font-family:Bitstream Vera Sans"
     d="M -287.72266,442.2962 L -288.05078,442.2962 L -290.01953,437.56573 L -290.21094,437.56573 L -292.04297,442.02276 L -295.61133,442.21417 L -295.00977,439.39776 C -293.2142,439.27016 -291.97461,438.81443 -291.29102,438.03057 C -290.60743,437.24672 -290.26563,435.84764 -290.26562,433.83331 C -290.26563,432.83071 -290.37273,432.10383 -290.58691,431.65264 C -290.80111,431.20148 -291.28191,430.91665 -292.0293,430.79815 L -293.13672,430.63409 C -293.56511,430.56118 -293.92741,430.35383 -294.22363,430.01202 C -294.51986,429.67023 -294.67253,429.26691 -294.68164,428.80206 C -294.68164,428.01822 -294.39453,427.28905 -293.82031,426.61456 L -293.45117,426.61456 C -293.3418,427.20702 -292.92709,427.53515 -292.20703,427.59893 L -291.20898,427.69464 C -289.97852,427.81314 -289.36329,428.46483 -289.36328,429.64971 C -289.36329,430.11457 -289.39975,430.81184 -289.47266,431.74151 C -289.54558,432.67121 -289.58204,433.36847 -289.58203,433.83331 C -289.58204,434.66274 -289.19467,435.74282 -288.41992,437.07354 C -287.61785,438.46808 -287.21681,439.61651 -287.2168,440.51886 C -287.21681,441.19334 -287.38543,441.78578 -287.72266,442.2962 L -287.72266,442.2962 z M -297.18359,442.13214 L -308.10742,442.13214 L -307.57422,439.34307 L -299.39844,439.34307 C -299.17058,438.15818 -299.05665,436.69529 -299.05664,434.9544 C -299.05665,433.27733 -299.2002,432.1494 -299.4873,431.57061 C -299.77442,430.99185 -300.5879,430.70246 -301.92773,430.70245 L -305.64648,430.70245 C -307.00456,430.70246 -307.68359,430.12824 -307.68359,428.97979 C -307.68359,428.13215 -307.4056,427.38476 -306.84961,426.73761 L -306.49414,426.73761 C -306.34831,427.37564 -305.89258,427.69465 -305.12695,427.69464 L -302.51562,427.69464 C -300.93881,427.69465 -299.84734,427.86783 -299.24121,428.21417 C -298.6351,428.56054 -298.23862,429.02538 -298.05176,429.6087 C -297.86492,430.19204 -297.7715,431.20832 -297.77148,432.65753 L -297.77148,434.58526 C -297.7715,436.69985 -298.16798,438.28579 -298.96094,439.34307 L -296.66406,439.34307 L -297.18359,442.13214 z M -311.34766,442.3919 L -311.64844,442.2962 L -311.64844,432.84893 C -311.64844,432.19269 -311.75098,431.70734 -311.95605,431.39288 C -312.16114,431.07844 -312.7194,430.84829 -313.63086,430.70245 C -315.01628,430.4746 -315.70899,429.78189 -315.70898,428.62432 C -315.70899,427.7858 -315.44466,427.11588 -314.91602,426.61456 L -314.54688,426.61456 C -314.47396,427.17968 -314.09571,427.52147 -313.41211,427.63995 L -312.26367,427.81768 C -311.62566,427.91796 -311.15853,428.16405 -310.8623,428.55596 C -310.56609,428.9479 -310.41797,429.7272 -310.41797,430.89386 L -310.41797,440.69659 C -310.41797,441.50779 -310.72787,442.07289 -311.34766,442.3919 L -311.34766,442.3919 z M -315.12109,435.09112 C -315.1211,434.87238 -315.06869,434.67869 -314.96387,434.51007 C -314.85905,434.34145 -314.72233,434.20701 -314.55371,434.10675 C -314.38509,434.00649 -314.19597,433.95636 -313.98633,433.95636 C -313.76758,433.95636 -313.5739,434.00649 -313.40527,434.10675 C -313.23666,434.20701 -313.10222,434.34145 -313.00195,434.51007 C -312.9017,434.67869 -312.85157,434.87238 -312.85156,435.09112 C -312.85157,435.30076 -312.90398,435.48989 -313.00879,435.6585 C -313.11361,435.82713 -313.25033,435.96385 -313.41895,436.06866 C -313.58757,436.17348 -313.7767,436.22589 -313.98633,436.22589 C -314.17774,436.22589 -314.35775,436.18032 -314.52637,436.08917 C -314.69499,435.99803 -314.83626,435.86587 -314.9502,435.69268 C -315.06413,435.51951 -315.1211,435.31899 -315.12109,435.09112 L -315.12109,435.09112 z M -319.11328,442.3919 L -319.40039,442.2962 L -319.40039,435.65167 C -319.4004,433.84699 -319.49838,432.69399 -319.69434,432.19268 C -319.89031,431.69139 -320.21388,431.31769 -320.66504,431.07159 C -321.11622,430.82551 -321.69272,430.70246 -322.39453,430.70245 L -326.86523,430.70245 C -328.17774,430.70246 -328.83399,430.12824 -328.83398,428.97979 C -328.83399,428.13215 -328.55599,427.38476 -328,426.73761 L -327.64453,426.73761 C -327.4987,427.37564 -327.04297,427.69465 -326.27734,427.69464 L -323.17383,427.69464 C -321.07748,427.69465 -319.71713,427.99999 -319.09277,428.61065 C -318.46844,429.22134 -318.15626,430.54751 -318.15625,432.58917 L -318.15625,441.03839 C -318.15626,441.60349 -318.47527,442.05466 -319.11328,442.3919 L -319.11328,442.3919 z M -333.26367,442.47393 L -333.48242,442.18682 C -333.24545,441.78578 -333.12696,441.30727 -333.12695,440.75128 C -333.12696,440.21352 -333.16342,439.40688 -333.23633,438.33136 C -333.30925,437.24672 -333.34571,436.43553 -333.3457,435.89776 C -333.34571,433.70116 -332.81251,431.96939 -331.74609,430.70245 L -339.79883,430.70245 C -341.17513,430.70246 -341.86328,430.12824 -341.86328,428.97979 C -341.86328,428.08658 -341.58529,427.33918 -341.0293,426.73761 L -340.66016,426.73761 C -340.51433,427.37564 -340.08594,427.69465 -339.375,427.69464 L -332.70312,427.69464 C -332.12892,427.69465 -331.69142,427.79035 -331.39062,427.98175 C -331.08986,428.17317 -330.93947,428.61978 -330.93945,429.32159 L -330.93945,429.99151 C -330.93947,430.32876 -331.10581,430.76854 -331.43848,431.31085 C -331.77117,431.85318 -331.93751,432.69399 -331.9375,433.83331 C -331.93751,434.48957 -331.83269,435.47394 -331.62305,436.78643 C -331.41342,438.09894 -331.30861,439.08331 -331.30859,439.73956 C -331.30861,441.36195 -331.9603,442.27341 -333.26367,442.47393 L -333.26367,442.47393 z M -341.53516,442.48761 L -341.72656,442.18682 C -341.48958,441.94073 -341.3711,441.60805 -341.37109,441.18878 C -341.3711,440.90623 -341.38477,440.47784 -341.41211,439.90362 C -341.43945,439.3294 -341.45313,438.90102 -341.45312,438.61846 C -341.45313,436.71352 -340.76953,435.76105 -339.40234,435.76104 C -339.22006,435.76105 -339.06511,435.79751 -338.9375,435.87042 L -338.9375,436.23956 C -339.375,436.52212 -339.59375,437.11912 -339.59375,438.03057 C -339.59375,438.33136 -339.57552,438.77797 -339.53906,439.37042 C -339.50261,439.96287 -339.48438,440.40492 -339.48438,440.69659 C -339.48438,441.80857 -340.16797,442.40557 -341.53516,442.48761 L -341.53516,442.48761 z"
     id="flowRoot3581" />
  <path
     transform="translate(557.40718,-217.14346)"
     style="font-size:40px;font-style:normal;font-weight:normal;fill:#000000;fill-opacity:1;stroke:none;stroke-width:1px;stroke-linecap:butt;stroke-linejoin:miter;stroke-opacity:1;font-family:Bitstream Vera Sans"
     d="M -290.70312,445.79164 L -290.95312,445.46351 C -290.6823,445.05726 -290.54689,444.51039 -290.54688,443.82289 C -290.54689,443.20831 -290.58855,442.28643 -290.67188,441.05726 C -290.75522,439.81769 -290.79689,438.8906 -290.79688,438.27601 C -290.79689,435.74477 -290.19272,433.7604 -288.98438,432.32289 L -296.89062,432.32289 C -297.91146,433.08332 -298.42188,434.33332 -298.42188,436.07289 C -298.42188,436.77081 -298.31771,437.8281 -298.10938,439.24476 C -297.90105,440.65102 -297.79688,441.70831 -297.79688,442.41664 C -297.79688,444.44789 -298.57292,445.57289 -300.125,445.79164 L -300.32812,445.46351 C -299.95313,444.88018 -299.79688,443.95831 -299.85938,442.69789 L -300.0625,438.74476 C -300.1875,436.01561 -299.43229,433.87498 -297.79688,432.32289 C -298.83854,432.31248 -299.55469,432.16405 -299.94531,431.87758 C -300.33594,431.59113 -300.53125,431.08853 -300.53125,430.36976 C -300.53125,429.34895 -300.21354,428.49478 -299.57812,427.80726 L -299.15625,427.80726 C -298.98959,428.53645 -298.47396,428.90103 -297.60938,428.90101 L -290.0625,428.90101 C -289.26043,428.90103 -288.72137,429.04426 -288.44531,429.3307 C -288.16928,429.61717 -288.03647,430.09374 -288.04688,430.76039 C -288.04689,431.62499 -288.24741,432.40103 -288.64844,433.08851 C -289.04949,433.77602 -289.25001,434.71873 -289.25,435.91664 C -289.25001,436.66665 -289.12501,437.79165 -288.875,439.29164 C -288.63543,440.79164 -288.51564,441.91664 -288.51562,442.66664 C -288.51564,444.53122 -289.2448,445.57289 -290.70312,445.79164 L -290.70312,445.79164 z M -309,445.74476 L -309.57812,445.74476 C -311.4323,445.74476 -312.87761,445.09893 -313.91406,443.80726 C -314.95052,442.5156 -315.46875,440.79164 -315.46875,438.63539 C -315.46875,436.12498 -314.89584,434.02082 -313.75,432.32289 C -314.38542,432.3229 -314.85417,432.12238 -315.15625,431.72133 C -315.45833,431.3203 -315.60938,430.86978 -315.60938,430.36976 C -315.60938,429.3802 -315.29167,428.52603 -314.65625,427.80726 L -314.25,427.80726 C -314.08334,428.53645 -313.56771,428.90103 -312.70312,428.90101 L -308.89062,428.90101 C -306.89064,428.90103 -305.46876,429.5703 -304.625,430.90883 C -303.78126,432.24738 -303.35939,434.28123 -303.35938,437.01039 C -303.35939,440.19789 -303.82553,442.4505 -304.75781,443.7682 C -305.69012,445.08591 -307.10418,445.74476 -309,445.74476 L -309,445.74476 z M -308.34375,432.33851 L -312.82812,432.33851 C -313.72396,433.83852 -314.17188,435.48956 -314.17188,437.29164 C -314.17188,440.78123 -312.77605,442.52602 -309.98438,442.52601 L -308.60938,442.52601 C -307.21355,442.52602 -306.18491,442.14581 -305.52344,441.38539 C -304.86199,440.62498 -304.53126,439.34373 -304.53125,437.54164 C -304.53126,435.43748 -304.84897,434.04425 -305.48438,433.36195 C -306.1198,432.67967 -307.07293,432.33853 -308.34375,432.33851 L -308.34375,432.33851 z M -322.5,445.79164 L -322.75,445.43226 C -322.47917,445.03643 -322.34376,444.49997 -322.34375,443.82289 C -322.34376,443.27081 -322.36459,442.43227 -322.40625,441.30726 C -322.45834,440.18227 -322.48438,439.34373 -322.48438,438.79164 C -322.48438,435.90623 -321.57813,433.75519 -319.76562,432.33851 L -327.0625,432.33851 C -328.67709,432.33853 -329.48438,431.68228 -329.48438,430.36976 C -329.48438,429.34895 -329.16667,428.49478 -328.53125,427.80726 L -328.125,427.80726 C -327.95834,428.53645 -327.4375,428.90103 -326.5625,428.90101 L -320.09375,428.90101 C -319.36459,428.90103 -318.86199,429.03384 -318.58594,429.29945 C -318.30991,429.56509 -318.17189,430.05207 -318.17188,430.76039 C -318.17189,431.67707 -318.39064,432.27863 -318.82812,432.56508 C -319.26564,432.85155 -319.66407,433.29686 -320.02344,433.90101 C -320.38282,434.50519 -320.56251,435.23436 -320.5625,436.08851 C -320.56251,436.81769 -320.50522,437.91144 -320.39062,439.36976 C -320.27605,440.83852 -320.21876,441.93747 -320.21875,442.66664 C -320.21876,444.49997 -320.97918,445.54164 -322.5,445.79164 L -322.5,445.79164 z"
     id="flowRoot3589" />
  <path
     transform="translate(556.13594,-124.86102)"
     style="font-size:40px;font-style:normal;font-weight:normal;fill:#000000;fill-opacity:1;stroke:none;stroke-width:1px;stroke-linecap:butt;stroke-linejoin:miter;stroke-opacity:1;font-family:Bitstream Vera Sans"
     d="M -288.1875,445.40101 L -295.89062,445.40101 L -295.23438,442.21351 L -290,442.21351 L -290.125,439.60414 C -290.16667,438.87498 -290.13021,437.74998 -290.01562,436.22914 C -289.92188,435.05206 -289.87501,434.17186 -289.875,433.58851 C -289.87501,432.79686 -290.3073,432.37498 -291.17188,432.32289 C -293.47396,432.18748 -294.625,431.46874 -294.625,430.16664 C -294.625,429.14582 -294.30729,428.31249 -293.67188,427.66664 L -293.25,427.66664 C -293.125,428.35415 -292.65105,428.72915 -291.82812,428.79164 L -290.5625,428.90101 C -289.14584,429.02603 -288.43751,429.74478 -288.4375,431.05726 C -288.43751,431.68228 -288.53126,432.61978 -288.71875,433.86976 C -288.90626,435.10936 -289.00001,436.04686 -289,436.68226 C -289.00001,437.68227 -288.9323,438.48956 -288.79688,439.10414 C -288.28647,441.38539 -288.03126,442.81247 -288.03125,443.38539 C -288.03126,444.29164 -288.08334,444.96351 -288.1875,445.40101 L -288.1875,445.40101 z M -297.89062,432.13539 C -298.23439,432.2604 -298.82814,432.36978 -299.67188,432.46351 C -300.19272,432.96353 -300.66668,433.68227 -301.09375,434.61976 C -301.52084,435.55727 -301.73959,436.36456 -301.75,437.04164 C -301.75001,438.0104 -301.29688,438.86456 -300.39062,439.60414 L -297.89062,441.65101 L -298.71875,445.40101 L -309.67188,445.40101 L -309,442.21351 L -300.48438,442.21351 L -305.64062,438.08851 C -306.3073,437.55727 -306.63021,436.95831 -306.60938,436.29164 L -306.53125,434.04164 C -306.51042,433.43748 -306.60678,432.98957 -306.82031,432.69789 C -307.03386,432.40623 -307.35938,432.2604 -307.79688,432.26039 C -309.40104,432.2604 -310.20313,431.58332 -310.20312,430.22914 C -310.20313,429.24999 -309.97396,428.39582 -309.51562,427.66664 L -309.09375,427.66664 C -308.91667,428.42707 -308.48959,428.82811 -307.8125,428.86976 L -307.26562,428.90101 C -306.54688,428.95311 -306.05209,429.11457 -305.78125,429.38539 C -305.51042,429.65624 -305.37501,430.20311 -305.375,431.02601 C -305.37501,431.35936 -305.41667,431.85415 -305.5,432.51039 C -305.58334,433.17707 -305.62501,433.68227 -305.625,434.02601 C -305.62501,434.85936 -305.33334,435.52081 -304.75,436.01039 L -303.26562,437.24476 C -302.52605,435.25519 -301.67709,433.61977 -300.71875,432.33851 C -302.04168,432.04686 -302.70313,431.34374 -302.70312,430.22914 C -302.70313,429.36457 -302.48438,428.5104 -302.04688,427.66664 L -301.60938,427.66664 C -301.51563,428.39582 -301.0573,428.79686 -300.23438,428.86976 L -299.375,428.93226 C -298.22918,429.02603 -297.65626,429.6354 -297.65625,430.76039 C -297.65626,431.1354 -297.73439,431.59374 -297.89062,432.13539 L -297.89062,432.13539 z M -315.20312,445.79164 L -315.45312,445.46351 C -315.1823,445.05726 -315.04689,444.51039 -315.04688,443.82289 C -315.04689,443.20831 -315.08855,442.28643 -315.17188,441.05726 C -315.25522,439.81769 -315.29689,438.8906 -315.29688,438.27601 C -315.29689,435.74477 -314.69272,433.7604 -313.48438,432.32289 L -321.39062,432.32289 C -322.41146,433.08332 -322.92188,434.33332 -322.92188,436.07289 C -322.92188,436.77081 -322.81771,437.8281 -322.60938,439.24476 C -322.40105,440.65102 -322.29688,441.70831 -322.29688,442.41664 C -322.29688,444.44789 -323.07292,445.57289 -324.625,445.79164 L -324.82812,445.46351 C -324.45313,444.88018 -324.29688,443.95831 -324.35938,442.69789 L -324.5625,438.74476 C -324.6875,436.01561 -323.93229,433.87498 -322.29688,432.32289 C -323.33854,432.31248 -324.05469,432.16405 -324.44531,431.87758 C -324.83594,431.59113 -325.03125,431.08853 -325.03125,430.36976 C -325.03125,429.34895 -324.71354,428.49478 -324.07812,427.80726 L -323.65625,427.80726 C -323.48959,428.53645 -322.97396,428.90103 -322.10938,428.90101 L -314.5625,428.90101 C -313.76043,428.90103 -313.22137,429.04426 -312.94531,429.3307 C -312.66928,429.61717 -312.53647,430.09374 -312.54688,430.76039 C -312.54689,431.62499 -312.74741,432.40103 -313.14844,433.08851 C -313.54949,433.77602 -313.75001,434.71873 -313.75,435.91664 C -313.75001,436.66665 -313.62501,437.79165 -313.375,439.29164 C -313.13543,440.79164 -313.01564,441.91664 -313.01562,442.66664 C -313.01564,444.53122 -313.7448,445.57289 -315.20312,445.79164 L -315.20312,445.79164 z"
     id="flowRoot3597" />
  <path
     transform="translate(340.34462,-124.86102)"
     style="font-size:40px;font-style:normal;font-weight:normal;fill:#000000;fill-opacity:1;stroke:none;stroke-width:1px;stroke-linecap:butt;stroke-linejoin:miter;stroke-opacity:1;font-family:Bitstream Vera Sans"
     d="M -290.67188,445.79164 L -290.92188,445.46351 C -290.65105,445.00518 -290.51564,444.45831 -290.51562,443.82289 C -290.51564,443.20831 -290.5573,442.28643 -290.64062,441.05726 C -290.72397,439.81769 -290.76564,438.8906 -290.76562,438.27601 C -290.76564,435.76561 -290.15626,433.78644 -288.9375,432.33851 L -298.14062,432.33851 C -299.71354,432.33853 -300.5,431.68228 -300.5,430.36976 C -300.5,429.34895 -300.18229,428.49478 -299.54688,427.80726 L -299.125,427.80726 C -298.95834,428.53645 -298.46875,428.90103 -297.65625,428.90101 L -290.03125,428.90101 C -289.37501,428.90103 -288.87501,429.0104 -288.53125,429.22914 C -288.18751,429.4479 -288.01564,429.95832 -288.01562,430.76039 L -288.01562,431.52601 C -288.01564,431.91144 -288.20574,432.41405 -288.58594,433.03383 C -288.96616,433.65363 -289.15626,434.61457 -289.15625,435.91664 C -289.15626,436.66665 -289.03647,437.79165 -288.79688,439.29164 C -288.5573,440.79164 -288.43751,441.91664 -288.4375,442.66664 C -288.43751,444.52081 -289.1823,445.56247 -290.67188,445.79164 L -290.67188,445.79164 z M -300.125,445.80726 L -300.34375,445.46351 C -300.07292,445.18226 -299.9375,444.80206 -299.9375,444.32289 C -299.9375,443.99997 -299.95313,443.51039 -299.98438,442.85414 C -300.01563,442.19789 -300.03125,441.70831 -300.03125,441.38539 C -300.03125,439.20831 -299.25,438.11977 -297.6875,438.11976 C -297.47917,438.11977 -297.30209,438.16144 -297.15625,438.24476 L -297.15625,438.66664 C -297.65625,438.98956 -297.90625,439.67185 -297.90625,440.71351 C -297.90625,441.05727 -297.88542,441.56768 -297.84375,442.24476 C -297.80209,442.92185 -297.78125,443.42706 -297.78125,443.76039 C -297.78125,445.03122 -298.5625,445.71351 -300.125,445.80726 L -300.125,445.80726 z M -304.625,445.69789 L -304.96875,445.58851 L -304.96875,434.79164 C -304.96876,434.04165 -305.08594,433.48696 -305.32031,433.12758 C -305.55469,432.76821 -306.19271,432.50519 -307.23438,432.33851 C -308.81771,432.07811 -309.60938,431.28644 -309.60938,429.96351 C -309.60938,429.0052 -309.30729,428.23957 -308.70312,427.66664 L -308.28125,427.66664 C -308.19792,428.31249 -307.76563,428.70311 -306.98438,428.83851 L -305.67188,429.04164 C -304.94271,429.15624 -304.40886,429.43749 -304.07031,429.88539 C -303.73178,430.33332 -303.56251,431.22394 -303.5625,432.55726 L -303.5625,443.76039 C -303.56251,444.68747 -303.91667,445.3333 -304.625,445.69789 L -304.625,445.69789 z M -307.48438,425.30726 C -307.47396,425.05728 -307.41146,424.83593 -307.29688,424.6432 C -307.1823,424.45051 -307.02865,424.29687 -306.83594,424.18226 C -306.64323,424.0677 -306.42709,424.01041 -306.1875,424.01039 C -305.875,424.01041 -305.58073,424.12239 -305.30469,424.34633 C -305.02865,424.5703 -304.89063,424.89062 -304.89062,425.30726 C -304.89063,425.66145 -305.01563,425.96614 -305.26562,426.22133 C -305.51563,426.47655 -305.82292,426.60416 -306.1875,426.60414 C -306.42709,426.59374 -306.64323,426.53124 -306.83594,426.41664 C -307.02865,426.30207 -307.1823,426.14843 -307.29688,425.9557 C -307.41146,425.76301 -307.47396,425.54687 -307.48438,425.30726 L -307.48438,425.30726 z M -316.0625,445.79164 L -316.3125,445.43226 C -316.04167,445.03643 -315.90626,444.49997 -315.90625,443.82289 C -315.90626,443.27081 -315.92709,442.43227 -315.96875,441.30726 C -316.02084,440.18227 -316.04688,439.34373 -316.04688,438.79164 C -316.04688,435.90623 -315.14063,433.75519 -313.32812,432.33851 L -320.625,432.33851 C -322.23959,432.33853 -323.04688,431.68228 -323.04688,430.36976 C -323.04688,429.34895 -322.72917,428.49478 -322.09375,427.80726 L -321.6875,427.80726 C -321.52084,428.53645 -321,428.90103 -320.125,428.90101 L -313.65625,428.90101 C -312.92709,428.90103 -312.42449,429.03384 -312.14844,429.29945 C -311.87241,429.56509 -311.73439,430.05207 -311.73438,430.76039 C -311.73439,431.67707 -311.95314,432.27863 -312.39062,432.56508 C -312.82814,432.85155 -313.22657,433.29686 -313.58594,433.90101 C -313.94532,434.50519 -314.12501,435.23436 -314.125,436.08851 C -314.12501,436.81769 -314.06772,437.91144 -313.95312,439.36976 C -313.83855,440.83852 -313.78126,441.93747 -313.78125,442.66664 C -313.78126,444.49997 -314.54168,445.54164 -316.0625,445.79164 L -316.0625,445.79164 z"
     id="flowRoot3605" />
  <path
     transform="translate(452.72157,-83.495271)"
     style="font-size:40px;font-style:normal;font-weight:normal;fill:#000000;fill-opacity:1;stroke:none;stroke-width:1px;stroke-linecap:butt;stroke-linejoin:miter;stroke-opacity:1;font-family:Bitstream Vera Sans"
     d="M -290.46875,437.93226 L -290.90625,437.43226 C -289.80209,436.60936 -289.25001,435.46352 -289.25,433.99476 C -289.25001,432.94269 -290.02605,432.3854 -291.57812,432.32289 C -293.30729,432.2604 -294.17188,431.52603 -294.17188,430.11976 C -294.17188,429.39061 -293.92708,428.5729 -293.4375,427.66664 L -293.01562,427.66664 C -292.91146,428.37499 -292.4375,428.76561 -291.59375,428.83851 L -290.17188,428.93226 C -288.77605,429.03645 -288.07813,429.99999 -288.07812,431.82289 L -288.07812,432.99476 C -288.07813,435.46352 -288.87501,437.10935 -290.46875,437.93226 L -290.46875,437.93226 z M -302.3125,445.74476 L -302.89062,445.74476 C -304.7448,445.74476 -306.19011,445.09893 -307.22656,443.80726 C -308.26302,442.5156 -308.78125,440.79164 -308.78125,438.63539 C -308.78125,436.12498 -308.20834,434.02082 -307.0625,432.32289 C -307.69792,432.3229 -308.16667,432.12238 -308.46875,431.72133 C -308.77083,431.3203 -308.92188,430.86978 -308.92188,430.36976 C -308.92188,429.3802 -308.60417,428.52603 -307.96875,427.80726 L -307.5625,427.80726 C -307.39584,428.53645 -306.88021,428.90103 -306.01562,428.90101 L -302.20312,428.90101 C -300.20314,428.90103 -298.78126,429.5703 -297.9375,430.90883 C -297.09376,432.24738 -296.67189,434.28123 -296.67188,437.01039 C -296.67189,440.19789 -297.13803,442.4505 -298.07031,443.7682 C -299.00262,445.08591 -300.41668,445.74476 -302.3125,445.74476 L -302.3125,445.74476 z M -301.65625,432.33851 L -306.14062,432.33851 C -307.03646,433.83852 -307.48438,435.48956 -307.48438,437.29164 C -307.48438,440.78123 -306.08855,442.52602 -303.29688,442.52601 L -301.92188,442.52601 C -300.52605,442.52602 -299.49741,442.14581 -298.83594,441.38539 C -298.17449,440.62498 -297.84376,439.34373 -297.84375,437.54164 C -297.84376,435.43748 -298.16147,434.04425 -298.79688,433.36195 C -299.4323,432.67967 -300.38543,432.33853 -301.65625,432.33851 L -301.65625,432.33851 z M -313.3125,445.69789 L -313.65625,445.58851 L -313.65625,434.79164 C -313.65626,434.04165 -313.77344,433.48696 -314.00781,433.12758 C -314.24219,432.76821 -314.88021,432.50519 -315.92188,432.33851 C -317.50521,432.07811 -318.29688,431.28644 -318.29688,429.96351 C -318.29688,429.0052 -317.99479,428.23957 -317.39062,427.66664 L -316.96875,427.66664 C -316.88542,428.31249 -316.45313,428.70311 -315.67188,428.83851 L -314.35938,429.04164 C -313.63021,429.15624 -313.09636,429.43749 -312.75781,429.88539 C -312.41928,430.33332 -312.25001,431.22394 -312.25,432.55726 L -312.25,443.76039 C -312.25001,444.68747 -312.60417,445.3333 -313.3125,445.69789 L -313.3125,445.69789 z M -316.17188,425.30726 C -316.16146,425.05728 -316.09896,424.83593 -315.98438,424.6432 C -315.8698,424.45051 -315.71615,424.29687 -315.52344,424.18226 C -315.33073,424.0677 -315.11459,424.01041 -314.875,424.01039 C -314.5625,424.01041 -314.26823,424.12239 -313.99219,424.34633 C -313.71615,424.5703 -313.57813,424.89062 -313.57812,425.30726 C -313.57813,425.66145 -313.70313,425.96614 -313.95312,426.22133 C -314.20313,426.47655 -314.51042,426.60416 -314.875,426.60414 C -315.11459,426.59374 -315.33073,426.53124 -315.52344,426.41664 C -315.71615,426.30207 -315.8698,426.14843 -315.98438,425.9557 C -316.09896,425.76301 -316.16146,425.54687 -316.17188,425.30726 L -316.17188,425.30726 z M -324.75,445.79164 L -325,445.43226 C -324.72917,445.03643 -324.59376,444.49997 -324.59375,443.82289 C -324.59376,443.27081 -324.61459,442.43227 -324.65625,441.30726 C -324.70834,440.18227 -324.73438,439.34373 -324.73438,438.79164 C -324.73438,435.90623 -323.82813,433.75519 -322.01562,432.33851 L -329.3125,432.33851 C -330.92709,432.33853 -331.73438,431.68228 -331.73438,430.36976 C -331.73438,429.34895 -331.41667,428.49478 -330.78125,427.80726 L -330.375,427.80726 C -330.20834,428.53645 -329.6875,428.90103 -328.8125,428.90101 L -322.34375,428.90101 C -321.61459,428.90103 -321.11199,429.03384 -320.83594,429.29945 C -320.55991,429.56509 -320.42189,430.05207 -320.42188,430.76039 C -320.42189,431.67707 -320.64064,432.27863 -321.07812,432.56508 C -321.51564,432.85155 -321.91407,433.29686 -322.27344,433.90101 C -322.63282,434.50519 -322.81251,435.23436 -322.8125,436.08851 C -322.81251,436.81769 -322.75522,437.91144 -322.64062,439.36976 C -322.52605,440.83852 -322.46876,441.93747 -322.46875,442.66664 C -322.46876,444.49997 -323.22918,445.54164 -324.75,445.79164 L -324.75,445.79164 z"
     id="flowRoot3613" />
  <path
     style="font-size:40px;font-style:normal;font-weight:normal;line-height:125%;fill:#a9a6a6;fill-opacity:1;stroke:#a9a6a6;stroke-width:1px;stroke-linecap:butt;stroke-linejoin:miter;stroke-opacity:1;font-family:Bitstream Vera Sans"
     d="M 158.0525,186.04837 L 157.8025,185.689 C 158.07332,185.29316 158.20874,184.7567 158.20875,184.07962 C 158.20874,183.52754 158.18791,182.689 158.14625,181.564 C 158.09416,180.439 158.06811,179.60046 158.06812,179.04837 C 158.06811,176.16296 158.97436,174.01192 160.78687,172.59525 L 153.49,172.59525 C 151.87541,172.59526 151.06812,171.93901 151.06812,170.6265 C 151.06812,169.60568 151.38583,168.75151 152.02125,168.064 L 152.4275,168.064 C 152.59416,168.79318 153.11499,169.15776 153.99,169.15775 L 160.45875,169.15775 C 161.1879,169.15776 161.69051,169.29057 161.96656,169.55618 C 162.24259,169.82182 162.38061,170.3088 162.38062,171.01712 C 162.38061,171.9338 162.16186,172.53536 161.72437,172.82181 C 161.28686,173.10828 160.88842,173.55359 160.52906,174.15775 C 160.16968,174.76192 159.98999,175.49109 159.99,176.34525 C 159.98999,177.07442 160.04728,178.16817 160.16187,179.6265 C 160.27645,181.09525 160.33374,182.19421 160.33375,182.92337 C 160.33374,184.7567 159.57332,185.79837 158.0525,186.04837 L 158.0525,186.04837 z M 132.38062,185.92337 L 132.0525,185.814 L 132.0525,178.2515 C 132.05249,176.49109 132.0004,175.3088 131.89625,174.70462 C 131.79207,174.10047 131.4978,173.59786 131.01344,173.19681 C 130.52905,172.79578 129.79207,172.59526 128.8025,172.59525 L 125.3025,172.59525 L 124.64625,174.0015 C 124.00041,175.40776 123.67749,176.59005 123.6775,177.54837 C 123.67749,178.00671 123.7452,178.88692 123.88062,180.189 C 124.27645,182.16817 124.45874,183.3765 124.4275,183.814 L 124.33375,185.65775 L 119.78687,185.65775 L 120.44312,182.47025 L 122.41187,182.47025 L 122.31812,179.40775 C 122.2452,177.30359 122.63062,175.54317 123.47437,174.1265 L 124.38062,172.59525 L 123.77125,172.59525 C 122.17749,172.59526 121.38062,171.93901 121.38062,170.6265 C 121.38062,169.64734 121.70354,168.79318 122.34937,168.064 L 122.77125,168.064 C 122.94833,168.79318 123.46916,169.15776 124.33375,169.15775 L 127.81812,169.15775 C 130.22436,169.15776 131.77905,169.50412 132.48219,170.19681 C 133.1853,170.88953 133.53686,172.40776 133.53687,174.7515 L 133.53687,183.98587 C 133.53686,184.89212 133.15144,185.53795 132.38062,185.92337 L 132.38062,185.92337 z"
     id="text2491" />
<path style="fill:#a9a6a6" transform="translate(135,186.7)scale(0.031,-0.035)" d="M412,314
C412,346,412,368,412,400
C454,400,474,516,376,516H366
C286,516,316,556,316,556
C240,500,248,402,354,400
C354,400,354,378,354,326
C354,270,314,226,272,198
C204,254,158,286,158,316
C158,348,158,368,158,400
C242,400,246,516,148,516H138
C58,516,88,554,88,554
C20,520,14,400,100,400
C100,400,100,342,100,304
C100,230,152,212,196,168
C196,168,106,134,48,108
C-2,88,12,0,76,0
C76,0,412,64,412,314Z"/>
  <path
     transform="translate(459.15305,18.622761)"
     style="font-size:40px;font-style:normal;font-weight:normal;fill:#000000;fill-opacity:1;stroke:none;stroke-width:1px;stroke-linecap:butt;stroke-linejoin:miter;stroke-opacity:1;font-family:Bitstream Vera Sans"
     d="M -288.48828,439.79425 L -288.95312,442.13214 L -295.77539,442.13214 L -295.11914,439.34307 L -289.33594,439.34307 C -289.07163,438.34959 -288.93946,437.14646 -288.93945,435.7337 C -288.93035,434.33006 -289.21518,433.1953 -289.79395,432.3294 C -290.37273,431.46353 -291.19988,431.03514 -292.27539,431.04425 C -293.7155,431.04426 -295.04851,431.95799 -296.27441,433.78546 C -297.50033,435.61294 -298.1224,438.39516 -298.14062,442.13214 L -299.05664,442.13214 C -299.0931,441.66729 -299.11133,441.27081 -299.11133,440.94268 C -299.11133,437.15102 -298.05404,434.09308 -295.93945,431.76886 C -295.93946,431.42251 -296.0306,431.17414 -296.21289,431.02374 C -296.39519,430.87336 -296.81901,430.72525 -297.48438,430.5794 C -298.63281,430.33332 -299.20703,429.72264 -299.20703,428.74737 C -299.20703,427.99999 -299.01563,427.28905 -298.63281,426.61456 L -298.26367,426.61456 C -298.09961,427.17056 -297.7487,427.48957 -297.21094,427.57159 L -296.36328,427.69464 C -295.59766,427.80403 -295.21485,428.1914 -295.21484,428.85675 C -295.21485,428.98436 -295.23308,429.17577 -295.26953,429.43096 C -295.31511,429.6953 -295.3379,429.89126 -295.33789,430.01886 C -295.3379,430.39256 -295.19662,430.67056 -294.91406,430.85284 C -293.40105,430.0052 -292.57618,428.89322 -292.43945,427.5169 C -290.97201,427.76301 -289.86232,428.58788 -289.11035,429.99151 C -288.35841,431.39517 -287.98243,433.20897 -287.98242,435.43292 C -287.98243,436.67251 -288.15105,438.12628 -288.48828,439.79425 L -288.48828,439.79425 z M -302.26953,435.46026 L -304.86719,438.37237 C -305.4961,439.0742 -305.81055,439.76235 -305.81055,440.43682 C -305.81055,440.5462 -305.79688,440.71026 -305.76953,440.92901 C -305.73308,441.14776 -305.71485,441.31182 -305.71484,441.4212 C -305.71485,442.09568 -306.02019,442.43292 -306.63086,442.43292 C -307.24154,442.43292 -307.54688,442.05466 -307.54688,441.29815 C -307.54688,440.23175 -306.8724,439.00584 -305.52344,437.62042 L -303.52734,435.55596 C -302.96225,434.97264 -302.6797,434.21613 -302.67969,433.28643 L -302.67969,432.46612 C -302.6797,431.75519 -302.8506,431.28351 -303.19238,431.05108 C -303.53419,430.81867 -304.20639,430.70246 -305.20898,430.70245 L -309.17383,430.70245 C -310.5957,430.70246 -311.30664,430.069 -311.30664,428.80206 C -311.30664,427.99087 -311.13802,427.0703 -310.80078,426.04034 L -310.4043,424.87823 C -310.3405,424.66861 -310.3086,424.51366 -310.30859,424.41339 C -310.3086,424.14908 -310.47266,423.93489 -310.80078,423.77081 L -311.56641,423.40167 C -311.95833,423.21028 -312.1543,422.9414 -312.1543,422.59503 C -312.1543,422.16666 -311.99479,421.72005 -311.67578,421.25518 L -311.33398,421.25518 C -311.28841,421.53776 -311.09701,421.74739 -310.75977,421.88409 L -310.24023,422.08917 C -309.66602,422.31705 -309.37891,422.66796 -309.37891,423.1419 C -309.37891,423.23307 -309.51563,423.79361 -309.78906,424.82354 L -309.98047,425.52081 C -310.10808,426.0039 -310.17188,426.35937 -310.17188,426.58721 C -310.17188,426.9427 -310.07617,427.21614 -309.88477,427.40753 C -309.69336,427.59895 -309.25131,427.69465 -308.55859,427.69464 L -304.10156,427.69464 C -303.25392,427.69465 -302.6045,427.89973 -302.15332,428.30987 C -301.70216,428.72004 -301.47657,429.72264 -301.47656,431.31768 L -301.47656,432.79425 C -301.47657,433.97915 -301.7409,434.86782 -302.26953,435.46026 L -302.26953,435.46026 z M -319.30469,442.13214 L -323.80273,442.13214 L -323.16016,439.34307 L -317.97852,439.34307 C -315.80925,439.34308 -314.72462,437.98045 -314.72461,435.25518 C -314.7155,433.44139 -314.96616,432.22915 -315.47656,431.61846 C -315.98699,431.0078 -316.72071,430.70246 -317.67773,430.70245 L -321.4375,430.70245 C -322.73177,430.70246 -323.37891,430.12824 -323.37891,428.97979 C -323.37891,428.13215 -323.10091,427.38476 -322.54492,426.73761 L -322.18945,426.73761 C -322.04362,427.37564 -321.58789,427.69465 -320.82227,427.69464 L -318.00586,427.69464 C -315.11655,427.69465 -313.67189,430.05988 -313.67188,434.79034 C -313.67189,436.58592 -313.82228,438.01235 -314.12305,439.06964 C -314.42384,440.12693 -315.00717,440.90167 -315.87305,441.39386 C -316.73894,441.88604 -317.88282,442.13214 -319.30469,442.13214 L -319.30469,442.13214 z M -327.04297,442.3919 L -327.34375,442.2962 L -327.34375,432.84893 C -327.34375,432.19269 -327.44629,431.70734 -327.65137,431.39288 C -327.85645,431.07844 -328.41472,430.84829 -329.32617,430.70245 C -330.71159,430.4746 -331.4043,429.78189 -331.4043,428.62432 C -331.4043,427.7858 -331.13998,427.11588 -330.61133,426.61456 L -330.24219,426.61456 C -330.16927,427.17968 -329.79102,427.52147 -329.10742,427.63995 L -327.95898,427.81768 C -327.32097,427.91796 -326.85385,428.16405 -326.55762,428.55596 C -326.2614,428.9479 -326.11329,429.7272 -326.11328,430.89386 L -326.11328,440.69659 C -326.11329,441.50779 -326.42318,442.07289 -327.04297,442.3919 L -327.04297,442.3919 z M -330.81641,435.09112 C -330.81641,434.87238 -330.764,434.67869 -330.65918,434.51007 C -330.55436,434.34145 -330.41765,434.20701 -330.24902,434.10675 C -330.08041,434.00649 -329.89128,433.95636 -329.68164,433.95636 C -329.46289,433.95636 -329.26921,434.00649 -329.10059,434.10675 C -328.93197,434.20701 -328.79753,434.34145 -328.69727,434.51007 C -328.59701,434.67869 -328.54688,434.87238 -328.54688,435.09112 C -328.54688,435.30076 -328.59929,435.48989 -328.7041,435.6585 C -328.80892,435.82713 -328.94564,435.96385 -329.11426,436.06866 C -329.28288,436.17348 -329.47201,436.22589 -329.68164,436.22589 C -329.87305,436.22589 -330.05306,436.18032 -330.22168,436.08917 C -330.3903,435.99803 -330.53158,435.86587 -330.64551,435.69268 C -330.75944,435.51951 -330.81641,435.31899 -330.81641,435.09112 L -330.81641,435.09112 z M -334.84961,442.36456 L -335.13672,442.26886 L -335.13672,435.65167 C -335.13673,434.11131 -335.1823,433.07681 -335.27344,432.54815 C -335.36459,432.01952 -335.62208,431.57974 -336.0459,431.22882 C -336.46974,430.87792 -337.11459,430.70246 -337.98047,430.70245 L -341.04297,430.70245 L -341.61719,431.93292 C -342.1823,433.1634 -342.46485,434.1979 -342.46484,435.03643 C -342.46485,435.43748 -342.4056,436.20766 -342.28711,437.34698 C -341.94076,439.07875 -341.78125,440.13604 -341.80859,440.51886 L -341.89062,442.13214 L -345.86914,442.13214 L -345.29492,439.34307 L -343.57227,439.34307 L -343.6543,436.66339 C -343.7181,434.82225 -343.38086,433.28188 -342.64258,432.04229 L -341.84961,430.70245 L -342.38281,430.70245 C -343.77735,430.70246 -344.47461,430.12824 -344.47461,428.97979 C -344.47461,428.12304 -344.19206,427.37564 -343.62695,426.73761 L -343.25781,426.73761 C -343.10287,427.37564 -342.64714,427.69465 -341.89062,427.69464 L -338.8418,427.69464 C -336.73634,427.69465 -335.37599,427.99771 -334.76074,428.60382 C -334.14552,429.20995 -333.8379,430.5384 -333.83789,432.58917 L -333.83789,440.66925 C -333.8379,441.46222 -334.17514,442.02732 -334.84961,442.36456 L -334.84961,442.36456 z"
     id="flowRoot3621" />
</svg>
