<?xml version="1.0" encoding="UTF-8" standalone="no"?>
<svg
   xmlns:dc="http://purl.org/dc/elements/1.1/"
   xmlns:cc="http://creativecommons.org/ns#"
   xmlns:rdf="http://www.w3.org/1999/02/22-rdf-syntax-ns#"
   xmlns:svg="http://www.w3.org/2000/svg"
   xmlns="http://www.w3.org/2000/svg"
   xmlns:sodipodi="http://sodipodi.sourceforge.net/DTD/sodipodi-0.dtd"
   xmlns:inkscape="http://www.inkscape.org/namespaces/inkscape"
   inkscape:version="1.0 (4035a4fb49, 2020-05-01)"
   sodipodi:docname="Tree_of_life_gadi.svg"
   id="svg224"
   version="1.1"
   viewBox="0 0 316 600"
   height="750"
   width="395">
  <metadata
     id="metadata230">
    <rdf:RDF>
      <cc:Work
         rdf:about="">
        <dc:format>image/svg+xml</dc:format>
        <dc:type
           rdf:resource="http://purl.org/dc/dcmitype/StillImage" />
      </cc:Work>
    </rdf:RDF>
  </metadata>
  <defs
     id="defs228" />
  <sodipodi:namedview
     inkscape:current-layer="svg224"
     inkscape:window-maximized="0"
     inkscape:window-y="61"
     inkscape:window-x="249"
     inkscape:cy="53.547742"
     inkscape:cx="195.6744"
     inkscape:zoom="5.3493334"
     showgrid="false"
     id="namedview226"
     inkscape:window-height="942"
     inkscape:window-width="1346"
     inkscape:pageshadow="2"
     inkscape:pageopacity="0"
     guidetolerance="10"
     gridtolerance="10"
     objecttolerance="10"
     borderopacity="1"
     bordercolor="#666666"
     pagecolor="#ffffff"
     inkscape:document-rotation="0" />
  <title
     id="title2">Kabbalistic Tree of Life with the names of the Sephiroth and paths in Hebrew</title>
  <g
     transform="matrix(0.392,0,0,-0.392,158,300)"
     stroke-width="51.8"
     stroke="#000000"
     fill="none"
     id="g76">
    <path
       d="M 0,653.561 -283,490.171"
       id="path4" />
    <path
       stroke-width="43.8"
       stroke="#ffffff"
       d="M 0,653.561 -283,490.171"
       id="path6" />
    <path
       d="M 0,653.561 283,490.171"
       id="path8" />
    <path
       stroke-width="43.8"
       stroke="#ffffff"
       d="M 0,653.561 283,490.171"
       id="path10" />
    <path
       d="M 0,0 283,490.17"
       id="path12" />
    <path
       stroke-width="43.8"
       stroke="#ffffff"
       d="M 0,0 283,490.17"
       id="path14" />
    <path
       d="M 0,0 -283,490.17"
       id="path16" />
    <path
       stroke-width="43.8"
       stroke="#ffffff"
       d="M 0,0 -283,490.17"
       id="path18" />
    <path
       d="M -283,490.17 283,163.39"
       id="path20" />
    <path
       stroke-width="43.8"
       stroke="#ffffff"
       d="M -283,490.17 283,163.39"
       id="path22" />
    <path
       d="M 283,490.17 -283,163.39"
       id="path24" />
    <path
       stroke-width="43.8"
       stroke="#ffffff"
       d="M 283,490.17 -283,163.39"
       id="path26" />
    <path
       d="M 0,0 283,163.39"
       id="path28" />
    <path
       stroke-width="43.8"
       stroke="#ffffff"
       d="M 0,0 283,163.39"
       id="path30" />
    <path
       d="M 0,0 -283,163.39"
       id="path32" />
    <path
       stroke-width="43.8"
       stroke="#ffffff"
       d="M 0,0 -283,163.39"
       id="path34" />
    <path
       d="M 0,0 283,-163.39"
       id="path36" />
    <path
       stroke-width="43.8"
       stroke="#ffffff"
       d="M 0,0 283,-163.39"
       id="path38" />
    <path
       d="M 0,0 -283,-163.39"
       id="path40" />
    <path
       stroke-width="43.8"
       stroke="#ffffff"
       d="M 0,0 -283,-163.39"
       id="path42" />
    <path
       d="m 0,-326.78 283,163.39"
       id="path44" />
    <path
       stroke-width="43.8"
       stroke="#ffffff"
       d="m 0,-326.78 283,163.39"
       id="path46" />
    <path
       d="m 0,-326.78 -283,163.39"
       id="path48" />
    <path
       stroke-width="43.8"
       stroke="#ffffff"
       d="m 0,-326.78 -283,163.39"
       id="path50" />
    <path
       d="M 283,490.17 V -163.391"
       id="path52" />
    <path
       stroke-width="43.8"
       stroke="#ffffff"
       d="M 283,490.17 V -163.391"
       id="path54" />
    <path
       d="M -283,490.17 V -163.391"
       id="path56" />
    <path
       stroke-width="43.8"
       stroke="#ffffff"
       d="M -283,490.17 V -163.391"
       id="path58" />
    <path
       d="M 0,653.561 V -653.559"
       id="path60" />
    <path
       stroke-width="43.8"
       stroke="#ffffff"
       d="M 0,653.561 V -653.559"
       id="path62" />
    <path
       d="M 283,490.17 H -283"
       id="path64" />
    <path
       stroke-width="43.8"
       stroke="#ffffff"
       d="M 283,490.17 H -283"
       id="path66" />
    <path
       d="M 283,163.39 H -283"
       id="path68" />
    <path
       stroke-width="43.8"
       stroke="#ffffff"
       d="M 283,163.39 H -283"
       id="path70" />
    <path
       d="M 283,-163.39 H -283"
       id="path72" />
    <path
       stroke-width="43.8"
       stroke="#ffffff"
       d="M 283,-163.39 H -283"
       id="path74" />
  </g>
  <circle
     transform="scale(1,-1)"
     cy="-300"
     cx="158"
     id="circle78"
     r="39.200001"
     style="fill:#ffffff;stroke:#000000;stroke-width:1.568" />
  <circle
     transform="scale(1,-1)"
     id="circle80"
     r="39.200001"
     cy="-235.95107"
     cx="268.936"
     style="fill:#ffffff;stroke:#000000;stroke-width:1.568" />
  <circle
     transform="scale(1,-1)"
     id="circle82"
     r="39.200001"
     cy="-364.04892"
     cx="268.936"
     style="fill:#ffffff;stroke:#000000;stroke-width:1.568" />
  <circle
     transform="scale(1,-1)"
     id="circle84"
     r="39.200001"
     cy="-235.95107"
     cx="47.063999"
     style="fill:#ffffff;stroke:#000000;stroke-width:1.568" />
  <circle
     transform="scale(1,-1)"
     id="circle86"
     r="39.200001"
     cy="-364.04892"
     cx="47.063999"
     style="fill:#ffffff;stroke:#000000;stroke-width:1.568" />
  <circle
     transform="scale(1,-1)"
     cx="158"
     id="circle88"
     r="39.200001"
     cy="-428.09787"
     style="fill:#ffffff;stroke:#000000;stroke-width:1.568" />
  <circle
     transform="scale(1,-1)"
     cx="158"
     id="circle90"
     r="39.200001"
     cy="-556.19574"
     style="fill:#ffffff;stroke:#000000;stroke-width:1.568" />
  <circle
     transform="scale(1,-1)"
     id="circle92"
     r="39.200001"
     cy="-107.85321"
     cx="268.936"
     style="fill:#ffffff;stroke:#000000;stroke-width:1.568" />
  <circle
     transform="scale(1,-1)"
     id="circle94"
     r="39.200001"
     cy="-107.85321"
     cx="47.063999"
     style="fill:#ffffff;stroke:#000000;stroke-width:1.568" />
  <circle
     transform="scale(1,-1)"
     cx="158"
     id="circle96"
     r="39.200001"
     cy="-43.804291"
     style="fill:#ffffff;stroke:#000000;stroke-width:1.568" />
  <path
     style="stroke-width:0.392"
     d="m 161.04192,166.328 h -5.56954 c -2.00704,0 -1.20422,-1.0631 -1.20422,-1.0631 -1.75616,0.90316 -1.90669,3.9639 1.20422,3.9639 h 4.41549 c 1.80634,0 0.54253,0.60211 0.54253,1.75616 v 7.47622 c 0,1.60564 1.4504,0.40141 1.4504,0 v -7.22534 c 0,-1.50528 2.9745,-4.90784 -0.83888,-4.90784 z"
     id="path178" />
  <path
     style="stroke-width:0.392"
     d="m 101.5128,73.210752 c 0,-1.856512 -1.54448,-1.746752 -1.54448,-1.746752 h -0.301056 c -2.006648,0 -1.2544,-0.962752 -1.2544,-0.962752 -1.705592,0.852992 -1.805944,3.863552 0.401408,3.863552 0,0 1.248128,-0.150136 1.248128,1.404928 v 7.827456 c 0,1.605632 1.4504,0.401408 1.4504,0 z"
     id="path180" />
  <path
     style="stroke-width:0.392"
     d="m 208.4112,81.113472 c 0,1.506848 1.4112,0.388864 1.4112,0 v -4.909408 c 0,-1.506848 -1.4112,-0.388864 -1.4112,0 z m 5.88,-8.943872 c 0.0486,0 1.176,-0.145824 1.176,1.263808 v 7.680064 c 0,1.506848 1.41081,0.388864 1.41081,0 -0.0106,0 0,-4.714976 0,-7.680064 0,-1.409632 0.91257,-1.506848 0.91257,-2.722048 0,-0.680512 -0.34025,-1.36416 -0.97216,-1.36416 h -6.95094 c -1.94432,0 -1.1662,-1.017632 -1.1662,-1.017632 -1.70128,0.874944 -1.8471,3.840032 1.02038,3.840032 z"
     id="path182" />
  <path
     style="stroke-width:0.392"
     d="m 159.20422,111.28179 h -0.90316 c -0.30106,0 -0.80282,-0.45158 -0.55194,-0.95334 1.15405,-2.55898 3.01056,-8.02816 1.55546,-8.7808 -0.55194,-0.30067 -1.15405,-0.1 -1.30458,-1.2544 -1.75616,0.85299 -1.90669,3.81337 0.30106,3.81337 0,0 -1.70599,7.17517 -3.31162,7.17517 -0.70246,0 -1.11642,-0.90317 -1.11642,-1.60563 V 107.92 c 0,-1.90669 2.87258,-5.36883 1.01568,-6.37235 -0.60172,-0.30067 -1.15366,-0.1 -1.35436,-1.2544 -1.70599,0.85299 -1.90669,3.81337 0.30105,3.81337 0,0 -1.36259,2.55898 -1.36259,3.96391 v 3.86355 c 0,2.15757 1.5633,2.25792 1.5633,2.25792 h 5.21791 c 1.85651,0 6.272,-11.89171 4.81689,-12.64435 -0.55193,-0.30106 -1.50528,-0.10035 -1.70598,-1.2544 -1.70598,0.85299 -1.85651,3.81337 0.30106,3.81337 0,0 -1.75616,7.17517 -3.46215,7.17517 z"
     id="path184" />
  <path
     style="stroke-width:0.392"
     d="m 107.2752,151.54176 c 0,1.26381 1.4112,0.32614 1.4112,0 v -7.84784 c 0,-1.22304 -1.4112,-0.28538 -1.4112,0 z m 7.7224,-8.52051 c 0,1.1415 -3.93254,3.1799 -3.93254,4.48448 0,1.58995 1.2638,1.58995 1.2638,0 0,-1.05997 4.07994,-3.09837 4.07994,-4.48448 v -2.62954 c 0,-2.26262 -2.18422,-2.20931 -2.18422,-2.20931 h -5.49271 c -1.94432,0 -1.2152,-0.82673 -1.16659,-0.86828 -1.70128,0.73343 -1.8471,3.22028 1.16659,3.22028 h 4.44763 c 0,0 1.8181,-0.12191 1.8181,1.77341 z"
     id="path186" />
  <path
     style="stroke-width:0.392"
     d="m 202.69427,145.53162 c 0.50176,-0.32615 2.28301,-3.78202 -1.78125,-3.78202 l -0.32614,-0.0314 c -1.75616,0 -1.95686,-0.47628 -2.18266,-0.8526 -0.47667,0.30066 -1.98195,3.46175 1.35476,3.73811 -1.43002,2.65933 0.57859,4.66598 0.30262,9.35743 0,1.55546 1.1368,0.40141 1.1368,0 1.07878,-4.28495 -1.23872,-7.0411 -0.26029,-9.29628 1.55546,0.0494 1.55546,0.4951 1.75616,0.86672 z"
     id="path188" />
  <path
     style="stroke-width:0.392"
     d="m 88.616,170.84854 c 0.01725,-0.77772 0,-1.31241 0,-2.09014 1.020768,0 1.524096,-2.8224 -0.857696,-2.8224 h -0.24304 c -1.94432,0 -1.214808,-0.96863 -1.214808,-0.96863 -1.847104,1.36063 -1.652672,3.72753 0.92316,3.77613 0,0 -0.01842,0.539 -0.01842,1.8134 0,1.36102 -0.963144,2.4304 -1.974112,3.11091 -1.652672,-1.36103 -2.769088,-2.13875 -2.769088,-2.86787 -0.0016,-0.77773 0,-1.26381 0,-2.04154 2.041536,0 2.137184,-2.8224 -0.244608,-2.8224 h -0.24304 c -1.94432,0 -1.2152,-0.92002 -1.2152,-0.92002 -1.652672,0.82594 -1.798496,3.74242 0.291648,3.74242 0,0 0,1.40963 0,2.33318 0,1.7985 1.263808,2.23597 2.333184,3.30535 0,0 -2.18736,0.82633 -3.596992,1.45824 -1.2152,0.48608 -0.874944,2.62483 0.680512,2.62483 0,0 8.148896,-1.55546 8.148896,-7.63146 z"
     id="path190" />
  <path
     style="stroke-width:0.392"
     d="m 232.68698,170.00026 c -0.20071,0.45158 0.35123,0.75264 0.50176,0.25088 0.60211,-1.65581 1.05369,-1.80634 1.50488,-1.80634 0,0 1.03959,-0.2007 1.03959,2.05722 v 0.30105 c 0,1.20423 -1.64915,4.76672 -3.64874,4.76672 h -2.10739 c 0,0 -1.41708,0.0502 -1.41708,-1.30457 v -2.60916 c 0,-1.05369 0.35633,-1.00352 0.81497,-1.50528 0.15053,0.0502 0.75264,0.40141 0.65229,1.20423 0.90316,-0.30106 1.4551,-0.90317 1.4551,-1.75616 0,-1.20423 0.2007,-1.50528 -0.75264,-2.45863 -0.65229,-0.65228 -1.55546,-0.95334 -1.70598,-2.55897 -0.55194,0.70246 -1.21168,0.95334 -1.21168,2.45862 0,1.45511 0.25363,1.2544 0.76009,2.10739 -0.90277,0.95335 -1.46255,1.45511 -1.46255,2.5088 v 3.91373 c 0,1.90669 1.56055,2.91021 2.46646,2.91021 h 2.55859 c 3.06073,0 5.04896,-4.8169 5.04896,-7.67693 v -3.51232 c 0,-1.85651 -1.53664,-1.74675 -1.53664,-1.74675 h -1.75616 c 0,0 -0.58761,0.0494 -0.58761,0.69306 0,0.60211 0.13642,1.60563 -0.61622,3.7632 z"
     id="path192" />
  <path
     style="stroke-width:0.392"
     d="m 48.1616,174.8391 v -6.37235 c 0,-1.85651 -1.50528,-1.74675 -1.50528,-1.74675 h -0.200704 c -2.057216,0 -1.2544,-0.96236 -1.2544,-0.96236 -1.75616,0.8526 -1.906296,3.86355 0.301056,3.86355 0,0 1.208928,-0.15053 1.208928,1.40493 v 3.86355 c 0,1.85612 -1.359456,1.85612 -1.359456,1.85612 h -0.501368 c -1.75616,0 -1.806336,2.91021 0,2.91021 h 0.200704 c 0.8526,0 1.555064,-1.00352 2.157176,-2.00704 0.50176,0.45158 0.852992,1.15405 1.00352,1.40493 0.802816,1.30457 2.057216,0.25088 1.404928,-0.80243 -0.602112,-1.00352 -1.404928,-1.2544 -1.455104,-3.41196 z"
     id="path194" />
  <path
     style="stroke-width:0.392"
     d="m 264.48602,176.74579 -1.07879,2.91021 h 9.8345 l 1.07878,-2.91021 h -0.8279 c 0,0 -0.51901,0 -0.51901,-0.75264 v -7.5264 c 0,-1.85651 -1.53821,-1.74675 -1.53821,-1.74675 h -5.56953 c -2.00665,0 -1.20384,-1.06271 -1.20384,-1.06271 -1.75616,0.90317 -1.90668,3.96351 1.20384,3.96351 h 4.41548 c 0,0 1.24186,-0.15014 1.24186,1.40493 v 4.46566 c 0,1.20423 -1.1415,1.2544 -1.1415,1.2544 z"
     id="path196" />
  <path
     style="stroke-width:0.392"
     d="m 153.43398,228.79085 c -2.80985,3.26144 0.50176,4.96742 1.30458,5.87059 -0.40141,1.35475 -2.26576,1.65581 -2.26576,3.16109 v 1.90669 c 0,1.15404 0.75264,0.80281 0.75264,1.40492 0,0.65229 -1.64797,1.55546 -0.14269,1.55546 1.00352,0 1.55546,0 2.5088,0 2.00704,0 1.65581,-1.35475 0.85299,-2.5088 -0.75264,-0.85299 -1.84867,-1.4551 -1.84867,-2.35827 0,-1.2544 0.69815,-1.35475 1.24656,-1.85651 6.02112,5.51936 4.36531,4.06425 5.77024,6.72358 2.40845,-3.16109 -0.0502,-5.06778 -1.95686,-6.92429 0.40141,-0.95334 0.75264,-0.90317 1.35475,-1.50528 0.60211,0.45159 0.25088,1.30458 0.65229,1.30458 1.30457,0 1.10387,-1.95687 1.00352,-3.26144 -0.20071,-1.70599 -1.70599,-1.75616 -2.60915,-3.51232 -1.75616,2.25792 -0.45159,4.16461 -0.20071,4.31513 -0.35123,0.75264 -0.45158,1.10388 -1.20422,1.55546 -4.36531,-3.51232 -4.51584,-4.31514 -5.21831,-5.87059 z"
     id="path198" />
  <path
     style="stroke-width:0.392"
     d="m 104.66605,272.39379 c -2.25792,0 -5.720066,0 -5.720066,0 h -0.25088 L 97.61632,275.304 h 7.70202 c 0,0 2.60915,0.0502 2.60915,-1.80634 0,-1.55545 -3.11091,-3.66284 -3.91373,-5.0176 0.65229,-1.00352 2.15757,-2.40844 2.15757,-2.40844 0.70246,1.10387 1.85651,0.90316 1.85651,-2.00665 0,-1.70599 -1.75616,-1.69658 -1.75616,-1.69658 h -0.25088 c -2.00704,0 -1.2544,-0.96275 -1.2544,-0.96275 -1.70598,0.85299 -1.85651,3.86355 0.35123,3.86355 -0.30105,0.10035 -1.95686,2.00704 -1.85651,2.00704 0,0 -1.0537,0.45159 -1.0537,-3.16109 0,-1.75616 -1.50488,-1.74675 -1.50488,-1.74675 h -0.25088 c -2.007044,0 -1.254404,-0.96275 -1.254404,-0.96275 -1.705984,0.85299 -2.00704,3.86355 0.351232,3.86355 0.300664,0 0.903172,-0.30105 1.203832,1.40493 0.45158,2.10739 2.86003,4.41549 3.91373,5.26848 0.65229,0.45158 0.25088,0.45158 0,0.45158 z"
     id="path200" />
  <path
     style="stroke-width:0.392"
     d="m 207.2352,267.5032 v 7.72867 c 0,1.50685 1.4112,0.38887 1.4112,0 v -7.72867 c 0,-1.36102 1.64914,-1.2152 1.64914,-1.2152 h 2.81927 c 0.0486,0 1.176,-0.14582 1.176,1.26381 v 7.68006 c 0,1.50685 1.4112,0.38887 1.4112,0 v -7.72867 c 1.11798,-1.40963 2.37081,-4.0376 -1.46922,-4.0376 h -5.54131 c -1.94432,0 -1.16659,-1.01763 -1.16659,-1.01763 -1.70089,0.87494 -1.84711,3.84003 1.02077,3.84003 -0.48608,0 -1.31085,0.53469 -1.31085,1.2152 z"
     id="path202" />
  <path
     style="stroke-width:0.392"
     d="m 96.4168,332.95936 v 2.00704 c 0,4.46566 3.067008,5.0176 3.82122,5.0176 h 2.5088 c 0.75264,0 3.82278,-0.55194 3.82278,-5.0176 v -4.41549 c 0,-3.61267 -4.52525,-3.50291 -4.52525,-3.50291 h -3.36179 c -2.00704,0 -1.2544,-1.0631 -1.2544,-1.0631 -1.705984,0.90316 -1.906688,4.26496 1.2544,3.9639 0,0 -2.26576,1.65581 -2.26576,3.01056 z m 1.4504,2.00704 v -2.00704 c 0,-1.40493 2.27046,-3.01056 2.27046,-3.01056 h 2.83495 c 0,0 2.14659,-0.15053 2.14659,3.36179 v 0.65229 c 0,3.06074 -2.72362,3.11091 -2.72362,3.11091 h -2.30809 c 0,0 -2.22029,-0.10035 -2.22029,-2.10739 z"
     id="path204" />
  <path
     style="stroke-width:0.392"
     d="m 209.26733,331.90566 c -1.10387,1.2544 0.60211,1.15405 1.05369,0.60212 0.60212,-0.65229 1.35476,-1.40493 1.35476,-2.20775 v -1.50528 c 0,-1.85651 -1.55546,-1.74675 -1.55546,-1.74675 h -0.30106 c -2.00704,0 -1.2544,-0.96275 -1.2544,-0.96275 -1.70598,0.85299 -1.80633,3.86355 0.40141,3.86355 0,0 2.15757,-0.35123 1.2544,0.75264 0,0 -0.60211,0.75264 -0.95334,1.20422 z"
     id="path206" />
  <path
     style="stroke-width:0.392"
     d="m 41.54464,300.49549 v 1.60563 c 0,0.80282 0.301056,1.50528 1.705984,1.50528 2.659328,0 2.5088,-2.87571 0.150528,-2.87571 -0.25088,0 -0.200704,-0.24304 0.05018,-0.48608 0.501368,-0.75264 1.154048,-1.65581 2.207744,-1.65581 h 2.433144 c 0,0 1.832992,-0.15053 1.832992,3.36179 v 1.20423 c 0,2.5088 -2.836512,2.55858 -2.836512,2.55858 h -4.841984 l -1.078784,2.91021 h 5.89568 c 0,0 4.6256,-0.0502 4.6256,-6.52288 v -2.90982 c 0,-3.61267 -4.525248,-3.50291 -4.525248,-3.50291 h -3.411968 c -2.00704,0 -1.204224,-1.0631 -1.204224,-1.0631 -1.60524,0.85299 -1.906296,3.61267 0.551936,4.01408 -0.300664,0.15052 -1.555064,1.10387 -1.555064,1.85651 z"
     id="path208" />
  <path
     style="stroke-width:0.392"
     d="m 263.7271,305.71379 -1.07878,2.91021 h 5.89568 c 0,0 4.6256,-0.0502 4.6256,-6.52288 v -2.91021 c 0,-3.61267 -4.52525,-3.50291 -4.52525,-3.50291 h -3.41197 c -2.00704,0 -1.20422,-1.0631 -1.20422,-1.0631 -1.75616,0.90316 -1.90669,3.9639 1.20422,3.9639 h 4.34023 c 0,0 1.80594,-0.15053 1.80594,3.36179 v 1.20423 c 0,2.5088 -2.80985,2.55897 -2.80985,2.55897 z"
     id="path210" />
  <path
     style="stroke-width:0.392"
     d="m 158.60211,357.8592 h -0.75264 c -1.85651,0 -0.70246,0.40141 -1.05369,1.85651 h -0.75264 c 0,-1.86592 -0.853,-1.85651 -0.853,-1.85651 h -0.25088 c -2.00704,0 -1.2544,-0.96275 -1.2544,-0.96275 -1.70559,0.85299 -2.00664,3.83846 0.35124,3.83846 1.50528,0 -1.56291,1.14464 -1.56291,3.03565 v 6.22182 c 0,1.55546 1.4504,0.40141 1.4504,0 v -6.02112 c 0,-0.55193 2.06506,-3.21126 3.17363,-3.21126 h 0.60172 c 1.20423,0 3.47626,2.35827 3.47626,4.66637 v 1.20422 c 0,1.20383 -1.16816,1.2544 -1.16816,1.2544 h -3.76281 l -1.07878,2.90982 h 4.89216 c 0,0 2.56799,-0.0502 2.56799,-2.90982 v -3.46214 c 0,-2.86003 -3.46998,-6.56365 -4.02349,-6.56365 z"
     id="path212" />
  <path
     style="stroke-width:0.392"
     d="m 162.2728,378.88608 c 0,-3.38688 -4.37158,-3.30848 -4.37158,-3.30848 h -3.30535 c -1.94432,0 -1.16659,-0.97216 -1.16659,-0.97216 -1.70128,0.84672 -1.8471,3.71616 1.16659,3.71616 h 4.20459 c 0,0 2.06114,-0.14112 2.06114,3.15168 v 5.55072 c 0,1.4112 1.4112,0.32928 1.4112,0 z"
     id="path214" />
  <path
     style="stroke-width:0.392"
     d="m 210.0231,400.65619 -1.07878,2.91021 h 3.136 c 0,0 2.60288,-0.0502 2.60288,-2.91021 v -8.27904 c 0,-1.85651 -1.49901,-1.74675 -1.49901,-1.74675 h -0.25088 c -2.00704,0 -1.2544,-0.96275 -1.2544,-0.96275 -1.70598,0.85299 -1.85651,3.86355 0.30106,3.86355 0,0 1.25244,-0.15014 1.25244,1.40493 v 4.46566 c 0,1.20423 -1.15248,1.2544 -1.15248,1.2544 z"
     id="path216" />
  <path
     style="stroke-width:0.392"
     d="m 96.598688,392.33952 c 0,0.89376 0.72912,1.74048 2.333184,1.74048 h 5.103838 c 0,0 1.16189,-0.14112 1.16189,1.31712 v 0.61113 c 0,2.352 -4.75927,3.48096 -5.293568,5.26848 -1.069376,3.57504 4.228508,2.21088 1.555068,0.18816 -0.0482,-0.047 -0.0968,-0.18816 0,-0.23481 0.72912,-0.51744 5.14931,-2.49312 5.14931,-5.22144 v -2.96352 c 0,-1.74048 -1.45511,-1.70912 -1.45511,-1.70912 h -6.221428 c -0.680512,0 -1.312416,-0.51234 0.09682,-1.63072 0.48608,-0.42336 0.837312,-0.79968 0.837312,-1.4112 0,-1.4112 -2.489592,-1.08192 -2.489592,-0.0941 0,0.4704 1.078784,0.18816 1.078784,0.65856 0,0.28224 -1.856512,0.84672 -1.856512,3.48096 z"
     id="path218" />
  <path
     style="stroke-width:0.392"
     d="m 155.34067,499.23949 v -0.85299 c 0,-0.80282 -1.43001,-2.75968 -1.43001,-4.13952 0,-0.70247 1.20422,-3.18618 2.45862,-3.18618 h 3.51232 c 0,0 1.8816,-0.17562 1.8816,2.15757 v 7.0999 c 0,1.55546 1.4504,0.40141 1.4504,0 v -9.48326 c 0,-2.78477 -2.25322,-2.67501 -2.25322,-2.67501 h -6.24691 c -2.00704,0 -1.20422,-1.0631 -1.20422,-1.0631 -1.75616,0.90316 -1.9063,3.9639 1.05369,3.9639 -1.37944,0 -2.18226,2.75968 -2.18226,3.3367 0,1.00352 1.50489,2.63424 1.50489,3.136 0,0.70247 -0.45159,0.65229 -0.45159,0.65229 -1.75576,0 -1.80594,2.91021 0,2.91021 h 0.50176 c 0,0 1.40493,-0.0502 1.40493,-1.80634 z"
     id="path220" />
  <text
     id="text354"
     y="55.468353"
     x="157.71875"
     style="font-style:normal;font-weight:normal;font-size:32px;line-height:125%;font-family:Sans;letter-spacing:0px;word-spacing:0px;fill:#000000;fill-opacity:1;stroke:none;stroke-width:0.8px;stroke-linecap:butt;stroke-linejoin:miter;stroke-opacity:1"
     xml:space="preserve"><tspan
       style="text-align:center;text-anchor:middle;stroke-width:0.8px"
       y="55.468353"
       x="157.71875"
       id="tspan352"
       sodipodi:role="line">1</tspan></text>
  <text
     id="text1255"
     y="119.72821"
     x="269.36569"
     style="font-style:normal;font-weight:normal;font-size:32px;line-height:125%;font-family:Sans;text-align:center;letter-spacing:0px;word-spacing:0px;text-anchor:middle;fill:#000000;fill-opacity:1;stroke:none;stroke-width:0.8px;stroke-linecap:butt;stroke-linejoin:miter;stroke-opacity:1"
     xml:space="preserve"><tspan
       style="text-align:center;text-anchor:middle;stroke-width:0.8px"
       y="119.72821"
       x="269.36569"
       id="tspan1253"
       sodipodi:role="line">2</tspan></text>
  <text
     id="text1259"
     y="119.50165"
     x="47.126499"
     style="font-style:normal;font-weight:normal;font-size:32px;line-height:125%;font-family:Sans;text-align:center;letter-spacing:0px;word-spacing:0px;text-anchor:middle;fill:#000000;fill-opacity:1;stroke:none;stroke-width:0.8px;stroke-linecap:butt;stroke-linejoin:miter;stroke-opacity:1"
     xml:space="preserve"><tspan
       style="text-align:center;text-anchor:middle;stroke-width:0.8px"
       y="119.50165"
       x="47.126499"
       id="tspan1257"
       sodipodi:role="line">3</tspan></text>
  <text
     id="text1263"
     y="247.61513"
     x="269.05319"
     style="font-style:normal;font-weight:normal;font-size:32px;line-height:125%;font-family:Sans;text-align:center;letter-spacing:0px;word-spacing:0px;text-anchor:middle;fill:#000000;fill-opacity:1;stroke:none;stroke-width:0.8px;stroke-linecap:butt;stroke-linejoin:miter;stroke-opacity:1"
     xml:space="preserve"><tspan
       style="text-align:center;text-anchor:middle;stroke-width:0.8px"
       y="247.61513"
       x="269.05319"
       id="tspan1261"
       sodipodi:role="line">4</tspan></text>
  <text
     id="text1267"
     y="247.38857"
     x="47.228062"
     style="font-style:normal;font-weight:normal;font-size:32px;line-height:125%;font-family:Sans;text-align:center;letter-spacing:0px;word-spacing:0px;text-anchor:middle;fill:#000000;fill-opacity:1;stroke:none;stroke-width:0.8px;stroke-linecap:butt;stroke-linejoin:miter;stroke-opacity:1"
     xml:space="preserve"><tspan
       style="text-align:center;text-anchor:middle;stroke-width:0.8px"
       y="247.38857"
       x="47.228062"
       id="tspan1265"
       sodipodi:role="line">5</tspan></text>
  <text
     id="text1271"
     y="364.04889"
     x="268.936"
     style="font-style:normal;font-weight:normal;font-size:32px;line-height:125%;font-family:Sans;letter-spacing:0px;word-spacing:0px;fill:#000000;fill-opacity:1;stroke:none;stroke-width:0.8px;stroke-linecap:butt;stroke-linejoin:miter;stroke-opacity:1"
     xml:space="preserve"><tspan
       style="stroke-width:0.8px"
       y="364.04889"
       x="268.936"
       id="tspan1269"
       sodipodi:role="line" /></text>
  <text
     id="text1287"
     y="311.64844"
     x="157.89062"
     style="font-style:normal;font-weight:normal;font-size:32px;line-height:125%;font-family:Sans;text-align:center;letter-spacing:0px;word-spacing:0px;text-anchor:middle;fill:#000000;fill-opacity:1;stroke:none;stroke-width:0.8px;stroke-linecap:butt;stroke-linejoin:miter;stroke-opacity:1"
     xml:space="preserve"><tspan
       style="text-align:center;text-anchor:middle;stroke-width:0.8px"
       y="311.64844"
       x="157.89062"
       id="tspan1285"
       sodipodi:role="line">6</tspan></text>
  <text
     id="text1291"
     y="375.71298"
     x="268.99069"
     style="font-style:normal;font-weight:normal;font-size:32px;line-height:125%;font-family:Sans;text-align:center;letter-spacing:0px;word-spacing:0px;text-anchor:middle;fill:#000000;fill-opacity:1;stroke:none;stroke-width:0.8px;stroke-linecap:butt;stroke-linejoin:miter;stroke-opacity:1"
     xml:space="preserve"><tspan
       style="text-align:center;text-anchor:middle;stroke-width:0.8px"
       y="375.71298"
       x="268.99069"
       id="tspan1289"
       sodipodi:role="line">7</tspan></text>
  <text
     id="text1295"
     y="375.69736"
     x="47.071812"
     style="font-style:normal;font-weight:normal;font-size:32px;line-height:125%;font-family:Sans;text-align:center;letter-spacing:0px;word-spacing:0px;text-anchor:middle;fill:#000000;fill-opacity:1;stroke:none;stroke-width:0.8px;stroke-linecap:butt;stroke-linejoin:miter;stroke-opacity:1"
     xml:space="preserve"><tspan
       style="text-align:center;text-anchor:middle;stroke-width:0.8px"
       y="375.69736"
       x="47.071812"
       id="tspan1293"
       sodipodi:role="line">8</tspan></text>
  <text
     id="text1299"
     y="439.74631"
     x="158.11719"
     style="font-style:normal;font-weight:normal;font-size:32px;line-height:125%;font-family:Sans;text-align:center;letter-spacing:0px;word-spacing:0px;text-anchor:middle;fill:#000000;fill-opacity:1;stroke:none;stroke-width:0.8px;stroke-linecap:butt;stroke-linejoin:miter;stroke-opacity:1"
     xml:space="preserve"><tspan
       style="text-align:center;text-anchor:middle;stroke-width:0.8px"
       y="439.74631"
       x="158.11719"
       id="tspan1297"
       sodipodi:role="line">9</tspan></text>
  <text
     id="text1303"
     y="567.84418"
     x="157.30469"
     style="font-style:normal;font-weight:normal;font-size:32px;line-height:125%;font-family:Sans;text-align:center;letter-spacing:0px;word-spacing:0px;text-anchor:middle;fill:#000000;fill-opacity:1;stroke:none;stroke-width:0.8px;stroke-linecap:butt;stroke-linejoin:miter;stroke-opacity:1"
     xml:space="preserve"><tspan
       style="text-align:center;text-anchor:middle;stroke-width:0.8px"
       y="567.84418"
       x="157.30469"
       id="tspan1301"
       sodipodi:role="line">10</tspan></text>
  <path
     inkscape:transform-center-y="-11.465774"
     inkscape:transform-center-x="0.15689284"
     id="circle924-8"
     style="fill:none;stroke:#800000;stroke-width:0.90212"
     d="m 135.44707,43.804291 c 1.48695,-29.582599 43.28801,-30.468222 45.10586,0"
     sodipodi:nodetypes="cc" />
</svg>
