<?xml version="1.0" encoding="UTF-8" standalone="no"?>
<!-- Created with Inkscape (http://www.inkscape.org/) -->

<svg
   width="120.604mm"
   height="142.082mm"
   viewBox="-6 -4 120.60399 142.08197"
   version="1.1"
   id="svg5"
   inkscape:version="1.2.2 (b0a8486541, 2022-12-01)"
   sodipodi:docname="candidate-hexagram.svg"
   xml:space="preserve"
   xmlns:inkscape="http://www.inkscape.org/namespaces/inkscape"
   xmlns:sodipodi="http://sodipodi.sourceforge.net/DTD/sodipodi-0.dtd"
   xmlns="http://www.w3.org/2000/svg"
   xmlns:svg="http://www.w3.org/2000/svg"><sodipodi:namedview
     id="namedview7"
     pagecolor="#ffffff"
     bordercolor="#666666"
     borderopacity="1.0"
     inkscape:showpageshadow="2"
     inkscape:pageopacity="0.0"
     inkscape:pagecheckerboard="0"
     inkscape:deskcolor="#d1d1d1"
     inkscape:document-units="mm"
     showgrid="false"
     inkscape:zoom="0.84096521"
     inkscape:cx="297.27746"
     inkscape:cy="309.76311"
     inkscape:window-width="1577"
     inkscape:window-height="930"
     inkscape:window-x="26"
     inkscape:window-y="23"
     inkscape:window-maximized="0"
     inkscape:current-layer="layer1"
     showguides="true" /><defs
     id="defs2" /><g
     inkscape:label="Layer 1"
     inkscape:groupmode="layer"
     id="layer1"
     transform="translate(-47.411624,-31.812566)"><path
       sodipodi:type="star"
       style="color:#000000;overflow:visible;fill:none;stroke:#999999;stroke-width:1;stroke-dasharray:4, 1;stroke-dashoffset:0;stroke-opacity:1;paint-order:stroke fill markers;stop-color:#000000"
       id="path13316-6"
       inkscape:flatsided="true"
       sodipodi:sides="3"
       sodipodi:cx="57.424046"
       sodipodi:cy="66.310791"
       sodipodi:r1="42.988094"
       sodipodi:r2="21.494047"
       sodipodi:arg1="0.52359878"
       sodipodi:arg2="1.5707963"
       inkscape:rounded="0"
       inkscape:randomized="0"
       d="m 94.652827,87.804838 -74.457563,0 37.228782,-64.482141 z"
       inkscape:transform-center-y="6.1786589"
       transform="matrix(0.47089143,0,0,-0.57491763,71.817027,164.30819)" /><path
       sodipodi:type="star"
       style="color:#000000;overflow:visible;opacity:1;fill:none;stroke:#999999;stroke-width:1;stroke-dasharray:4, 1;stroke-dashoffset:0;stroke-opacity:1;paint-order:stroke fill markers;stop-color:#000000"
       id="path13316"
       inkscape:flatsided="true"
       sodipodi:sides="3"
       sodipodi:cx="57.424046"
       sodipodi:cy="66.310791"
       sodipodi:r1="42.988094"
       sodipodi:r2="21.494047"
       sodipodi:arg1="0.52359878"
       sodipodi:arg2="1.5707963"
       inkscape:rounded="0"
       inkscape:randomized="0"
       d="m 94.652827,87.804838 -74.457563,0 37.228782,-64.482141 z"
       inkscape:transform-center-y="-6.178656"
       transform="matrix(0.47089143,0,0,0.57491763,71.817027,38.848886)" /><g
       id="g16448"
       transform="translate(18.218385,-14.185489)"><circle
         style="color:#000000;overflow:visible;fill:none;stroke:#000000;stroke-width:0.712141;stroke-dasharray:none;paint-order:stroke fill markers;stop-color:#000000"
         id="path254-7"
         cx="63.802593"
         cy="102.79316"
         r="7.2921457" /><circle
         style="color:#000000;overflow:visible;fill:#000000;stroke:#000000;stroke-width:0.271997;paint-order:stroke fill markers;stop-color:#000000"
         id="path254-6-5"
         cx="63.802593"
         cy="102.79316"
         r="6.0690656" /><path
         sodipodi:type="star"
         style="color:#000000;overflow:visible;fill:none;stroke:#ffffff;stroke-width:0.950127;stroke-dasharray:none;paint-order:stroke fill markers;stop-color:#000000"
         id="path2680"
         inkscape:flatsided="true"
         sodipodi:sides="3"
         sodipodi:cx="29.974186"
         sodipodi:cy="165.42764"
         sodipodi:r1="4.6446495"
         sodipodi:r2="2.3223248"
         sodipodi:arg1="-1.5707963"
         sodipodi:arg2="-0.52359878"
         inkscape:rounded="0"
         inkscape:randomized="0"
         d="m 29.974186,160.78299 4.022384,6.96698 -8.044769,0 z"
         inkscape:transform-center-y="-1.2078741"
         transform="matrix(1.0402263,0,0,1.0402263,32.584722,-69.306189)" /></g><g
       id="g16632"
       transform="translate(-34.055624,-14.120355)"><circle
         style="color:#000000;overflow:visible;fill:#000000;stroke:#000000;stroke-width:0.712141;stroke-dasharray:none;paint-order:stroke fill markers;stop-color:#000000"
         id="path254-7-6-1"
         cx="149.86449"
         cy="102.72141"
         r="7.2921457" /><circle
         style="color:#000000;overflow:visible;fill:#ffffff;stroke:#ffffff;stroke-width:0.271997;paint-order:stroke fill markers;stop-color:#000000"
         id="path254-6-5-2-2"
         cx="149.86449"
         cy="102.72141"
         r="6.0690656" /><g
         aria-label="✝"
         id="text4418"
         style="font-size:13.4433px;line-height:125%;font-family:Sans;letter-spacing:0px;word-spacing:0px;fill:#000000;stroke-width:0.336083px"
         transform="translate(-20.327314,-59.63098)"><path
           d="m 171.05681,160.13379 h 2.40318 v 2.02033 h -2.40318 v 5.04301 h -2.02033 v -5.04301 h -2.40317 v -2.02033 h 2.40317 v -2.51441 h 2.02033 z"
           style="fill:#000000"
           id="path4420"
           sodipodi:nodetypes="ccccccccccccc" /></g></g><g
       id="g16313"
       transform="translate(0.22246898,-0.22246898)"><rect
         style="color:#000000;overflow:visible;fill:#000000;stroke:#000000;stroke-width:0.599365;stroke-dasharray:none;paint-order:stroke fill markers;stop-color:#000000"
         id="rect4649"
         width="15.863146"
         height="15.863146"
         x="91.069351"
         y="63.705513" /><g
         aria-label="✝"
         id="text4418-1"
         style="font-size:13.4433px;line-height:125%;font-family:Sans;letter-spacing:0px;word-spacing:0px;fill:#999999;stroke-width:0.336083px"
         transform="matrix(0.45156195,0,0,0.45156195,22.369801,-4.5651957)"><path
           d="m 171.05681,160.13379 h 2.40318 v 2.02033 h -2.40318 v 4.66832 h -2.02033 v -4.66832 h -2.40317 v -2.02033 h 2.40317 v -2.51441 h 2.02033 z"
           style="fill:#999999"
           id="path4420-8"
           sodipodi:nodetypes="ccccccccccccc" /></g><path
         id="path2680-7"
         style="overflow:visible;fill:none;stroke:#ffffff;stroke-width:0.831083;stroke-dasharray:none;paint-order:stroke fill markers;stop-color:#000000"
         inkscape:transform-center-y="-0.76076621"
         d="m 99.168532,71.700573 2.635368,4.564595 h -5.270745 z"
         inkscape:transform-center-x="-2.3418956e-06" /></g><g
       id="g16473"
       transform="translate(-33.620189,-38.997432)"><circle
         style="color:#000000;overflow:visible;fill:none;stroke:#000000;stroke-width:0.712141;stroke-dasharray:none;paint-order:stroke fill markers;stop-color:#000000"
         id="path254-7-6-9"
         cx="149.44225"
         cy="153.52455"
         r="7.2921457" /><circle
         style="color:#000000;overflow:visible;fill:#000000;stroke:#000000;stroke-width:0.271997;paint-order:stroke fill markers;stop-color:#000000"
         id="path254-6-5-2-3"
         cx="149.44225"
         cy="153.52455"
         r="6.0690656" /><g
         transform="matrix(-0.07409465,0,0,0.07409465,153.11279,149.73684)"
         id="g597"
         style="fill:#ffffff"><polygon
           fill="#000000"
           stroke="none"
           stroke-width="0"
           points="0,0 20,0 20,40 40,40 40,0 100,0 100,20 60,20 60,40 100,40 100,100 80,100 80,60 60,60 60,100 0,100 0,80 40,80 40,60 0,60 "
           id="polygon595"
           style="fill:#ffffff" /></g></g><g
       id="g16501"
       transform="translate(-0.36368498,-21.213383)"><circle
         style="color:#000000;overflow:visible;fill:none;stroke:#000000;stroke-width:0.712141;stroke-dasharray:none;paint-order:stroke fill markers;stop-color:#000000"
         id="path254-7-6-6"
         cx="99.177689"
         cy="170.64885"
         r="7.2921457" /><circle
         style="color:#000000;overflow:visible;fill:#000000;stroke:#000000;stroke-width:0.271997;paint-order:stroke fill markers;stop-color:#000000"
         id="path254-6-5-2-06"
         cx="99.177689"
         cy="170.64885"
         r="6.0690656" /><g
         transform="matrix(7.3611533e-4,0,0,-8.2638839e-4,94.863755,176.14102)"
         fill="#000000"
         stroke="none"
         id="g5805"
         style="fill:#ffffff"><path
           d="m 5705,12780 c -162,-19 -358,-76 -495,-145 -200,-101 -427,-301 -549,-484 -229,-345 -301,-749 -206,-1148 28,-117 81,-262 99,-269 7,-3 55,12 107,32 52,20 152,56 224,81 71,24 132,47 135,50 3,3 -2,4 -11,0 -11,-4 -21,5 -33,31 -22,45 -63,169 -68,202 -2,18 -8,24 -23,22 -17,-2 -16,0 5,12 14,9 19,15 13,16 -23,0 -17,288 7,385 74,295 245,511 515,648 104,54 177,75 312,94 114,16 131,16 235,1 136,-20 135,-20 225,-52 314,-115 547,-389 618,-728 19,-92 21,-318 3,-319 -7,0 3,-7 22,-14 l 35,-13 -30,-1 c -28,-1 -31,-4 -33,-36 -2,-20 -7,-47 -12,-60 -5,-14 -6,-25 -2,-26 4,0 -2,-4 -12,-8 -13,-5 10,-11 70,-20 49,-7 158,-24 242,-38 84,-14 154,-24 156,-22 3,2 13,42 23,89 26,122 26,438 -1,565 -108,516 -474,928 -966,1089 -186,60 -423,86 -605,66 z"
           id="path5759"
           style="fill:#ffffff" /><path
           d="m 6671,10805 c -18,-30 -43,-65 -55,-78 -12,-13 -31,-35 -42,-49 -11,-14 -29,-28 -40,-31 -38,-9 54,-7 326,9 151,9 278,19 282,22 14,14 66,147 60,154 -11,10 -251,28 -380,28 h -117 z"
           id="path5761"
           style="fill:#ffffff" /><path
           d="m 5045,10596 c -176,-58 -335,-118 -335,-126 0,-4 28,-40 63,-81 57,-67 134,-138 210,-196 l 28,-21 103,48 c 57,27 179,78 272,115 93,36 178,71 189,76 18,9 18,9 -4,5 -13,-3 -31,-1 -40,3 -9,5 -46,22 -82,39 -110,51 -267,161 -252,176 14,13 -28,3 -152,-38 z"
           id="path5763"
           style="fill:#ffffff" /><path
           d="m 6945,10493 c -344,-47 -731,-152 -1056,-289 -145,-61 -469,-222 -469,-234 0,-10 147,-46 248,-61 108,-15 381,-6 482,16 246,54 491,177 663,334 73,66 192,194 208,224 10,18 -3,20 -76,10 z"
           id="path5765"
           style="fill:#ffffff" /><path
           d="m 12,10373 c 16,-60 72,-175 115,-239 118,-173 289,-300 461,-340 78,-19 256,-15 532,10 207,19 789,69 1705,146 738,61 754,62 826,25 50,-26 99,-76 127,-129 26,-49 27,-57 29,-227 1,-116 7,-198 17,-242 56,-241 215,-436 446,-546 135,-64 277,-91 485,-91 238,0 412,-32 554,-101 65,-32 102,-59 166,-123 45,-44 91,-94 103,-111 l 21,-30 v 460 c -1,253 -4,485 -9,515 -4,30 -8,46 -9,34 0,-11 -12,-53 -26,-94 -77,-228 -281,-365 -511,-346 -217,18 -390,157 -449,360 -23,80 -16,218 19,349 31,115 34,235 10,318 -54,184 -203,345 -380,412 l -59,22 -2092,3 -2091,2 z"
           id="path5767"
           style="fill:#ffffff" /><path
           d="m 7512,10390 c -106,-28 -167,-64 -258,-155 -169,-167 -208,-335 -144,-613 18,-78 30,-158 30,-200 0,-213 -162,-408 -386,-467 -163,-42 -349,10 -469,131 -50,51 -101,139 -153,264 -8,18 -11,-118 -11,-475 0,-473 1,-499 17,-476 101,145 241,246 402,290 127,35 177,41 410,51 124,5 259,16 300,24 295,57 532,266 626,551 24,72 27,101 33,285 7,226 10,235 78,311 20,22 53,49 72,59 51,25 146,43 195,36 22,-3 230,-22 461,-41 231,-20 814,-69 1296,-110 482,-41 925,-75 986,-75 134,0 232,23 341,80 168,87 289,224 362,411 12,28 19,53 17,55 -4,4 -1288,33 -2407,54 -311,6 -770,15 -1020,20 -627,14 -690,13 -778,-10 z"
           id="path5769"
           style="fill:#ffffff" /><path
           d="m 3255,9900 c -115,-11 -532,-46 -925,-79 -952,-81 -1512,-130 -1516,-134 -8,-8 121,-158 178,-205 109,-92 263,-151 391,-152 27,0 160,16 295,35 136,19 441,61 677,94 237,33 594,83 795,111 201,28 366,55 368,59 4,11 103,178 126,214 l 18,27 -44,20 c -66,29 -131,31 -363,10 z"
           id="path5771"
           style="fill:#ffffff" /><path
           d="m 8175,9913 c -43,-9 -115,-35 -115,-41 0,-4 100,-175 146,-250 1,-2 101,-17 221,-33 249,-33 573,-78 1078,-149 877,-123 849,-121 950,-95 144,37 293,136 395,263 51,65 59,82 38,82 -7,0 -80,7 -163,15 -212,20 -734,65 -1570,135 -396,33 -767,65 -825,70 -109,10 -122,11 -155,3 z"
           id="path5773"
           style="fill:#ffffff" /><path
           d="m 5444,9800 c -84,-9 -109,-21 -129,-60 -35,-67 -5,-158 60,-186 52,-21 933,-21 975,1 96,50 102,171 11,227 -36,23 -39,23 -441,24 -223,1 -437,-2 -476,-6 z"
           id="path5775"
           style="fill:#ffffff" /><path
           d="m 3682,9730 c -123,-165 -170,-407 -124,-632 53,-253 231,-493 451,-607 163,-84 158,-84 681,-91 513,-7 512,-7 622,-74 84,-50 146,-106 212,-191 33,-41 61,-74 62,-72 7,6 -26,137 -50,200 -51,135 -138,235 -257,294 -131,65 -202,76 -640,103 -187,11 -287,33 -397,85 -202,95 -346,238 -438,430 -65,138 -77,193 -83,410 l -6,190 z"
           id="path5777"
           style="fill:#ffffff" /><path
           d="m 8000,9617 c 0,-104 -5,-184 -16,-235 -58,-283 -244,-516 -510,-639 -111,-51 -209,-72 -394,-83 -445,-28 -508,-38 -647,-107 -135,-66 -234,-202 -282,-387 -29,-110 -27,-115 21,-54 66,85 173,183 237,217 125,66 103,64 611,71 518,8 519,8 666,80 390,191 589,666 447,1065 -28,77 -69,154 -107,200 l -25,30 z"
           id="path5779"
           style="fill:#ffffff" /><path
           d="m 3305,9504 c -88,-13 -295,-42 -460,-64 -544,-74 -1280,-180 -1304,-188 l -23,-8 40,-50 c 113,-143 281,-235 457,-250 95,-8 103,-6 805,141 272,57 524,110 559,117 35,7 65,17 66,23 1,5 8,64 14,130 6,66 14,132 17,148 4,15 2,26 -2,26 -5,-1 -81,-12 -169,-25 z"
           id="path5781"
           style="fill:#ffffff" /><path
           d="m 8241,9519 c 0,-8 8,-79 17,-158 l 17,-144 460,-98 c 836,-178 800,-171 920,-172 206,-2 343,64 493,237 51,59 52,61 30,68 -24,8 -458,71 -948,138 -557,77 -945,131 -967,137 -16,3 -23,1 -22,-8 z"
           id="path5783"
           style="fill:#ffffff" /><path
           d="m 5680,8040 c 0,-1337 1,-1410 18,-1409 9,0 89,19 177,42 l 160,42 3,1368 3,1367 h -181 -180 z"
           id="path5785"
           style="fill:#ffffff" /><path
           d="m 3350,9109 c -47,-11 -236,-51 -420,-89 -492,-104 -669,-143 -683,-152 -16,-12 87,-104 176,-158 149,-89 322,-118 462,-77 67,20 659,200 662,202 7,3 -94,295 -102,294 -5,0 -48,-9 -95,-20 z"
           id="path5787"
           style="fill:#ffffff" /><path
           d="m 8250,9088 c -6,-23 -27,-89 -46,-146 -20,-57 -34,-105 -32,-107 3,-2 201,-63 538,-165 194,-58 255,-66 360,-47 120,23 246,87 340,174 62,58 70,68 54,75 -17,7 -286,66 -679,148 -238,50 -478,101 -502,106 -19,5 -23,0 -33,-38 z"
           id="path5789"
           style="fill:#ffffff" /><path
           d="m 8071,8690 c -28,-37 -85,-100 -127,-140 -42,-39 -74,-73 -72,-74 26,-18 294,-131 340,-142 124,-32 315,4 446,83 66,41 152,109 152,122 0,8 -109,43 -461,149 l -227,69 z"
           id="path5791"
           style="fill:#ffffff" /><path
           d="m 3450,8714 c -232,-70 -535,-166 -540,-171 -13,-13 113,-108 195,-148 152,-74 297,-92 421,-54 51,16 295,118 322,135 1,1 -29,32 -69,70 -39,38 -96,99 -126,137 -30,37 -63,67 -72,66 -9,0 -68,-16 -131,-35 z"
           id="path5793"
           style="fill:#ffffff" /><path
           d="m 3775,8347 c -224,-102 -210,-86 -135,-141 84,-62 171,-109 250,-137 62,-21 86,-22 520,-29 255,-4 490,-13 535,-19 120,-18 260,-58 353,-102 104,-48 208,-148 265,-254 l 38,-70 -6,64 c -23,233 -127,448 -268,554 -119,90 -163,97 -607,97 -447,0 -577,15 -725,85 -28,14 -54,25 -56,24 -2,0 -76,-33 -164,-72 z"
           id="path5795"
           style="fill:#ffffff" /><path
           d="m 7697,8388 c -160,-69 -176,-71 -672,-77 -427,-6 -453,-7 -507,-28 -204,-76 -340,-276 -383,-560 -21,-135 -18,-147 14,-78 35,76 99,159 154,204 91,73 287,145 472,172 44,6 285,15 535,19 434,7 458,8 520,30 36,12 90,35 121,51 56,30 179,124 179,137 0,7 -331,156 -353,159 -7,0 -43,-12 -80,-29 z"
           id="path5797"
           style="fill:#ffffff" /><path
           d="m 4505,7873 c -326,-28 -608,-151 -716,-313 -62,-91 -84,-169 -84,-290 1,-83 6,-118 23,-164 70,-190 230,-341 516,-486 175,-89 489,-206 707,-265 l 66,-17 87,52 c 102,61 285,142 445,196 95,32 109,39 90,46 -13,5 -122,34 -244,64 -771,193 -1110,320 -1267,474 -58,57 -67,71 -73,113 -21,144 93,256 270,265 101,5 135,-8 258,-102 156,-119 286,-166 516,-187 153,-13 182,-7 248,54 23,22 43,43 43,47 0,4 -35,13 -77,20 -151,24 -255,50 -316,77 -59,27 -61,28 -32,33 17,4 127,4 246,2 l 216,-5 -9,58 c -12,81 -40,128 -101,174 -113,84 -250,130 -451,150 -102,10 -268,12 -361,4 z m 511,-179 c 35,-45 24,-54 -63,-54 -69,0 -107,11 -140,42 -43,41 -31,48 76,48 h 100 z"
           id="path5799"
           style="fill:#ffffff" /><path
           d="m 6880,7874 c -273,-33 -450,-99 -523,-196 -37,-48 -67,-118 -67,-157 v -34 l 245,6 c 135,4 245,3 245,-2 0,-20 -136,-64 -285,-93 -88,-17 -164,-34 -168,-39 -14,-11 90,-87 136,-100 31,-8 73,-9 162,0 236,22 400,85 539,209 87,78 205,102 323,67 95,-28 183,-131 183,-215 0,-202 -394,-389 -1273,-604 -144,-36 -372,-92 -507,-125 -276,-68 -380,-100 -536,-166 -200,-86 -332,-172 -460,-299 -135,-136 -222,-287 -270,-471 -36,-141 -37,-327 -1,-465 47,-181 128,-321 260,-452 120,-119 335,-256 379,-242 12,3 60,29 107,57 156,92 273,143 569,248 l 92,33 v 618 c 0,340 4,618 8,618 15,0 133,-50 216,-92 232,-116 365,-255 411,-429 18,-68 19,-208 1,-274 -34,-130 -138,-255 -296,-357 -140,-91 -231,-132 -530,-239 -163,-58 -372,-156 -470,-219 -225,-147 -377,-338 -441,-555 -32,-108 -37,-314 -11,-426 37,-151 105,-275 221,-402 63,-68 242,-210 280,-222 14,-4 49,12 123,56 57,35 184,102 284,151 l 181,88 6,217 c 4,120 7,352 7,517 0,280 1,298 18,292 53,-20 186,-110 249,-170 168,-158 213,-374 118,-571 -85,-176 -218,-285 -540,-444 -250,-123 -371,-200 -464,-294 -281,-284 -317,-694 -93,-1025 23,-32 65,-81 94,-107 53,-49 165,-107 226,-118 29,-6 31,-5 23,11 -5,9 -46,60 -91,112 -110,130 -160,236 -181,389 -28,195 30,369 167,506 88,88 178,139 398,227 224,90 314,134 427,210 166,111 298,260 374,421 50,105 66,177 72,317 4,105 2,139 -16,215 -41,170 -172,389 -295,490 l -43,35 -99,-39 c -55,-21 -184,-68 -289,-104 -104,-36 -232,-81 -282,-102 l -93,-37 -2,-518 -3,-519 -85,57 c -345,229 -443,554 -245,817 107,142 292,247 645,366 262,88 388,140 519,214 305,171 472,363 558,642 25,81 27,102 27,258 1,188 -10,245 -69,387 -61,144 -206,332 -326,421 -36,27 -37,27 -80,11 -24,-8 -233,-63 -464,-120 -230,-58 -434,-112 -452,-119 -19,-8 -34,-22 -34,-32 -1,-10 -1,-287 1,-617 l 2,-598 -23,7 c -45,13 -264,123 -324,162 -139,92 -251,221 -285,330 -25,80 -27,223 -5,308 36,137 141,264 299,364 172,107 317,156 841,284 758,186 1197,343 1480,532 249,166 370,388 336,616 -40,263 -272,439 -666,505 -88,14 -395,27 -465,18 z m 20,-159 c 17,-9 30,-17 30,-20 0,-2 -20,-16 -45,-30 -33,-20 -58,-26 -99,-26 -52,0 -116,22 -116,40 0,5 21,18 48,29 57,25 142,28 182,7 z"
           id="path5801"
           style="fill:#ffffff" /><path
           d="m 6085,2665 c -93,-40 -215,-92 -269,-116 l -99,-43 7,-445 c 14,-945 46,-1667 81,-1881 16,-95 37,-165 51,-165 22,0 55,120 69,253 31,306 75,1518 75,2091 0,127 3,231 8,231 15,0 111,-71 160,-118 69,-67 124,-155 153,-244 19,-59 24,-93 23,-178 -1,-192 -55,-326 -199,-495 -73,-85 -83,-100 -65,-103 33,-5 116,27 181,70 155,104 279,340 296,564 14,195 -62,408 -212,587 -31,37 -64,67 -73,66 -9,-1 -93,-34 -187,-74 z"
           id="path5803"
           style="fill:#ffffff" /></g></g><g
       id="g16467"
       transform="translate(36.524018,-32.297727)"><circle
         style="color:#000000;overflow:visible;fill:none;stroke:#000000;stroke-width:0.712141;stroke-dasharray:none;paint-order:stroke fill markers;stop-color:#000000"
         id="path254-7-6-7"
         cx="45.555286"
         cy="146.78003"
         r="7.2921457" /><circle
         style="color:#000000;overflow:visible;fill:#000000;stroke:#000000;stroke-width:0.271997;paint-order:stroke fill markers;stop-color:#000000"
         id="path254-6-5-2-0"
         cx="45.555286"
         cy="146.78003"
         r="6.0690656" /><g
         id="g16459"
         style="fill:#ffffff"><path
           sodipodi:type="star"
           style="color:#000000;overflow:visible;fill:#ffffff;stroke:none;stroke-width:0.0280001;stroke-dasharray:none;paint-order:stroke fill markers;stop-color:#000000"
           id="path7294"
           inkscape:flatsided="true"
           sodipodi:sides="3"
           sodipodi:cx="35.358036"
           sodipodi:cy="243.1936"
           sodipodi:r1="2.2807856"
           sodipodi:r2="1.1403927"
           sodipodi:arg1="0.52359878"
           sodipodi:arg2="1.5707963"
           inkscape:rounded="0"
           inkscape:randomized="0"
           d="m 37.333254,244.334 -3.950436,0 1.975218,-3.42118 z"
           inkscape:transform-center-y="-0.60099175"
           transform="matrix(1.0539932,0,0,1.0539932,8.347447,-106.40364)" /><circle
           style="color:#000000;overflow:visible;fill:#ffffff;stroke:none;stroke-width:0.0298709;stroke-dasharray:none;paint-order:stroke fill markers;stop-color:#000000"
           id="path7348"
           cx="45.61425"
           cy="146.83217"
           r="1.2029264" /><path
           id="path7350"
           style="overflow:visible;opacity:1;fill:#ffffff;stroke-width:0.026714;paint-order:stroke fill markers;stop-color:#000000"
           inkscape:transform-center-x="-3.0978499"
           inkscape:transform-center-y="2.7415868"
           d="m 45.660257,145.96384 c -1.673882,-0.005 -3.315336,-1.47232 -3.063604,-3.47863 2.016555,1.51935 4.077104,1.48098 6.161678,-0.0185 0.386817,2.0266 -1.514202,3.49617 -3.098074,3.49713 z"
           sodipodi:nodetypes="cccc" /></g></g><g
       id="g16320"
       transform="translate(0,14.287503)"><circle
         style="color:#000000;overflow:visible;fill:none;stroke:#000000;stroke-width:0.712141;stroke-dasharray:none;paint-order:stroke fill markers;stop-color:#000000"
         id="path254-7-6"
         cx="98.929398"
         cy="39.450401"
         r="7.2921457" /><circle
         style="color:#000000;overflow:visible;fill:#000000;stroke:#000000;stroke-width:0.271997;paint-order:stroke fill markers;stop-color:#000000"
         id="path254-6-5-2"
         cx="98.929398"
         cy="39.450401"
         r="6.0690656" /><g
         aria-label="✝"
         id="text4418-2"
         style="font-size:13.4433px;line-height:125%;font-family:Sans;letter-spacing:0px;word-spacing:0px;fill:#ffffff;stroke-width:0.336083px"
         transform="translate(-71.166731,-123.05462)"><path
           d="m 171.05681,160.13379 h 2.48183 v 2.02033 h -2.48183 v 5.04301 h -2.02033 v -5.04301 h -2.48182 v -2.02033 h 2.48182 v -2.51441 h 2.02033 z"
           style="fill:#ffffff"
           id="path4420-6"
           sodipodi:nodetypes="ccccccccccccc" /></g><circle
         style="color:#000000;overflow:visible;fill:none;stroke:#ffffff;stroke-width:0.45;stroke-dasharray:none;paint-order:stroke fill markers;stop-color:#000000"
         id="path4837"
         cx="98.87291"
         cy="38.140739"
         r="3.0453246" /></g><g
       id="g16327"
       transform="translate(-0.3760444,0.2064687)"><circle
         style="color:#000000;overflow:visible;fill:none;stroke:#000000;stroke-width:0.712141;stroke-dasharray:none;paint-order:stroke fill markers;stop-color:#000000"
         id="path254-7-6-1-3"
         cx="99.280258"
         cy="88.460091"
         r="7.2921457" /><circle
         style="color:#000000;overflow:visible;fill:#000000;stroke:#000000;stroke-width:0.271997;paint-order:stroke fill markers;stop-color:#000000"
         id="path254-6-5-2-2-6"
         cx="99.280258"
         cy="88.460091"
         r="6.0690656" /><g
         id="g13253"
         transform="matrix(0.92440602,0,0,0.92440602,-61.088858,10.826772)"
         style="fill:#ffffff"><circle
           style="color:#000000;overflow:visible;opacity:1;fill:#ffffff;stroke:#ff0000;stroke-width:0.0280001;stroke-dasharray:none;paint-order:stroke fill markers;stop-color:#000000"
           id="path13124"
           cx="173.51483"
           cy="81.417992"
           r="2.2811761" /><path
           style="opacity:1;fill:#ffffff;fill-rule:evenodd;stroke:none;stroke-width:0.264583px;stroke-linecap:butt;stroke-linejoin:miter;stroke-opacity:1"
           d="m 169.6327,87.765315 -0.003,-1.382999 c 0.17549,-0.93197 0.77115,-1.605597 1.81553,-1.855295 l 4.17369,0.009 c 0.94943,0.266006 1.60918,0.960694 1.70539,1.78674 l 0.022,1.408535 c -0.0194,0.445571 -0.24113,0.573381 -0.48426,0.667515 l -6.69958,-0.0034 c -0.33668,-0.09684 -0.50557,-0.294113 -0.52944,-0.630047 z"
           id="path13189"
           sodipodi:nodetypes="cccccccccc" /></g></g><text
       xml:space="preserve"
       style="font-size:6.35px;line-height:100%;font-family:Arial;-inkscape-font-specification:Arial;letter-spacing:0px;word-spacing:0px;fill:#000000;stroke:#000000;stroke-width:0.264583px;stroke-linecap:butt;stroke-linejoin:miter;stroke-opacity:1"
       x="98.893211"
       y="36.435539"
       id="text17096"><tspan
         sodipodi:role="line"
         id="tspan17094"
         style="font-size:6.35px;text-align:center;text-anchor:middle;fill:#000000;fill-opacity:1;stroke:none;stroke-width:0.264583px"
         x="98.893211"
         y="36.435539">(East)</tspan><tspan
         sodipodi:role="line"
         style="font-size:6.35px;text-align:center;text-anchor:middle;fill:#000000;fill-opacity:1;stroke:none;stroke-width:0.264583px"
         x="98.893211"
         y="42.785538"
         id="tspan17098">Hierophant</tspan></text><text
       xml:space="preserve"
       style="font-size:6.35px;line-height:100%;font-family:Arial;-inkscape-font-specification:Arial;letter-spacing:0px;word-spacing:0px;fill:#000000;stroke:#000000;stroke-width:0.264583px;stroke-linecap:butt;stroke-linejoin:miter;stroke-opacity:1"
       x="99.188484"
       y="102.9589"
       id="text17096-4"><tspan
         sodipodi:role="line"
         style="font-size:6.35px;text-align:center;text-anchor:middle;fill:#000000;fill-opacity:1;stroke:none;stroke-width:0.264583px"
         x="99.188484"
         y="102.9589"
         id="tspan17098-1">Candidate</tspan><tspan
         sodipodi:role="line"
         style="font-size:6.35px;text-align:center;text-anchor:middle;fill:#000000;fill-opacity:1;stroke:none;stroke-width:0.264583px"
         x="99.188484"
         y="109.3089"
         id="tspan17157">(West)</tspan></text><text
       xml:space="preserve"
       style="font-size:6.35px;line-height:100%;font-family:Arial;-inkscape-font-specification:Arial;letter-spacing:0px;word-spacing:0px;fill:#000000;stroke:#000000;stroke-width:0.264583px;stroke-linecap:butt;stroke-linejoin:miter;stroke-opacity:1"
       x="60.653255"
       y="90.935471"
       id="text17096-4-2"><tspan
         sodipodi:role="line"
         style="font-size:6.35px;text-align:center;text-anchor:middle;fill:#000000;fill-opacity:1;stroke:none;stroke-width:0.264583px"
         x="60.653255"
         y="90.935471"
         id="tspan17157-3">Hireus</tspan></text><text
       xml:space="preserve"
       style="font-size:6.35px;line-height:100%;font-family:Arial;-inkscape-font-specification:Arial;letter-spacing:0px;word-spacing:0px;fill:#000000;stroke:#000000;stroke-width:0.264583px;stroke-linecap:butt;stroke-linejoin:miter;stroke-opacity:1"
       x="138.84337"
       y="89.94368"
       id="text17096-4-9"><tspan
         sodipodi:role="line"
         style="font-size:6.35px;text-align:center;text-anchor:middle;fill:#000000;fill-opacity:1;stroke:none;stroke-width:0.264583px"
         x="138.84337"
         y="89.94368"
         id="tspan17157-8">Hegemon</tspan></text><text
       xml:space="preserve"
       style="font-size:6.35px;line-height:100%;font-family:Arial;-inkscape-font-specification:Arial;letter-spacing:0px;word-spacing:0px;fill:#000000;stroke:#000000;stroke-width:0.264583px;stroke-linecap:butt;stroke-linejoin:miter;stroke-opacity:1"
       x="141.19809"
       y="116.35935"
       id="text17096-4-8"><tspan
         sodipodi:role="line"
         style="font-size:6.35px;text-align:center;text-anchor:middle;fill:#000000;fill-opacity:1;stroke:none;stroke-width:0.264583px"
         x="141.19809"
         y="116.35935"
         id="tspan17157-0">Dadouchos</tspan></text><text
       xml:space="preserve"
       style="font-size:6.35px;line-height:100%;font-family:Arial;-inkscape-font-specification:Arial;letter-spacing:0px;word-spacing:0px;fill:#000000;stroke:#000000;stroke-width:0.264583px;stroke-linecap:butt;stroke-linejoin:miter;stroke-opacity:1"
       x="59.125637"
       y="116.34338"
       id="text17096-4-96"><tspan
         sodipodi:role="line"
         style="font-size:6.35px;text-align:center;text-anchor:middle;fill:#000000;fill-opacity:1;stroke:none;stroke-width:0.264583px"
         x="59.125637"
         y="116.34338"
         id="tspan17157-85">Stolistes</tspan></text><text
       xml:space="preserve"
       style="font-size:6.35px;line-height:100%;font-family:Arial;-inkscape-font-specification:Arial;letter-spacing:0px;word-spacing:0px;fill:#000000;stroke:#000000;stroke-width:0.264583px;stroke-linecap:butt;stroke-linejoin:miter;stroke-opacity:1"
       x="98.326378"
       y="164.1433"
       id="text17096-4-6"><tspan
         sodipodi:role="line"
         style="font-size:6.35px;text-align:center;text-anchor:middle;fill:#000000;fill-opacity:1;stroke:none;stroke-width:0.264583px"
         x="98.326378"
         y="164.1433"
         id="tspan17157-1">Keryx</tspan></text></g></svg>
