<?xml version="1.0" encoding="UTF-8" standalone="no"?>
<svg
   xmlns:dc="http://purl.org/dc/elements/1.1/"
   xmlns:cc="http://creativecommons.org/ns#"
   xmlns:rdf="http://www.w3.org/1999/02/22-rdf-syntax-ns#"
   xmlns:svg="http://www.w3.org/2000/svg"
   xmlns="http://www.w3.org/2000/svg"
   width="515" height="675" version="1.0">
  <metadata>
    <rdf:RDF>
      <cc:Work rdf:about="">
        <dc:format>image/svg+xml</dc:format>
        <dc:type rdf:resource="http://purl.org/dc/dcmitype/StillImage" />
      </cc:Work>
    </rdf:RDF>
  </metadata>
  <g style="fill:#000000;fill-opacity:1;fill-rule:evenodd;stroke:#000000;stroke-width:1px;stroke-linecap:butt;stroke-linejoin:miter;stroke-opacity:1">
    <g transform="matrix(2,0,0,2,-17.498228,363.4995)">
      <rect width="8" height="8" x="-20.617138" y="58.579025" transform="rotate(-45)" />
      <rect width="8" height="8" x="2.0102811" y="35.951607" transform="rotate(-45)" />
      <rect width="8" height="8" x="0.59606379" y="57.164822" transform="rotate(-45)" />
      <rect width="8" height="8" x="23.223486" y="34.537403" transform="rotate(-45)" />
      <rect width="8" height="8" x="-19.202927" y="37.365837" transform="rotate(-45)" />
      <rect width="8" height="8" x="3.4244983" y="14.738407" transform="rotate(-45)" />
    </g>
    <g style="fill:#000000;fill-opacity:1;fill-rule:evenodd;stroke:#000000;stroke-width:1px;stroke-linecap:butt;stroke-linejoin:miter;stroke-opacity:1" transform="matrix(2,0,0,2,262.50178,3.4994815)" >
      <rect transform="rotate(-45)" y="47.265316" x="-9.3034296" height="8" width="8"/>
      <rect transform="rotate(-45)" y="68.478531" x="-10.717646" height="8" width="8"/>
      <rect transform="rotate(-45)" y="45.851112" x="11.909779" height="8" width="8"/>
      <rect width="8" height="8" x="23.223486" y="34.537403" transform="rotate(-45)" />
      <rect transform="rotate(-45)" y="48.679546" x="-30.516642" height="8" width="8"/>
      <rect transform="rotate(-45)" y="26.052118" x="-7.8892145" height="8" width="8"/>
      <rect width="8" height="8" x="3.4244983" y="14.738407" transform="rotate(-45)" />
    </g>
    <g transform="matrix(2,0,0,2,122.50178,3.4994815)">
      <rect transform="rotate(-45)" y="47.265316" x="-9.3034296" height="8" width="8"/>
      <rect transform="rotate(-45)" y="24.637899" x="13.323991" height="8" width="8"/>
      <rect transform="rotate(-45)" y="68.478531" x="-10.717646" height="8" width="8"/>
      <rect transform="rotate(-45)" y="45.851112" x="11.909779" height="8" width="8"/>
      <rect transform="rotate(-45)" y="48.679546" x="-30.516642" height="8" width="8"/>
      <rect transform="rotate(-45)" y="26.052118" x="-7.8892145" height="8" width="8"/>
    </g>
    <g transform="matrix(2,0,0,2,122.50178,543.49946)">
      <rect transform="rotate(-45)" y="47.265316" x="-9.3034296" height="8" width="8"/>
      <rect width="8" height="8" x="-20.617138" y="58.579025" transform="rotate(-45)" />
      <rect width="8" height="8" x="2.0102811" y="35.951607" transform="rotate(-45)" />
      <rect width="8" height="8" x="23.223486" y="34.537403" transform="rotate(-45)" />
      <rect width="8" height="8" x="3.4244983" y="14.738407" transform="rotate(-45)" />
    </g>
    <g transform="matrix(2,0,0,2,122.50178,363.4995)">
      <rect width="8" height="8" x="-20.617138" y="58.579025" transform="rotate(-45)" />
      <rect transform="rotate(-45)" y="24.637899" x="13.323991" height="8" width="8"/>
      <rect width="8" height="8" x="0.59606379" y="57.164822" transform="rotate(-45)" />
      <rect transform="rotate(-45)" y="45.851112" x="11.909779" height="8" width="8"/>
      <rect width="8" height="8" x="-19.202927" y="37.365837" transform="rotate(-45)" />
      <rect transform="rotate(-45)" y="26.052118" x="-7.8892145" height="8" width="8"/>
    </g>
    <g transform="matrix(2.0000144,0,0,2,-17.498408,543.49946)">
      <rect transform="rotate(-45)" y="47.265316" x="-9.3034296" height="8" width="8"/>
      <rect width="8" height="8" x="2.0102811" y="35.951607" transform="rotate(-45)" />
      <rect transform="rotate(-45)" y="24.637899" x="13.323991" height="8" width="8"/>
      <rect transform="rotate(-45)" y="68.478531" x="-10.717646" height="8" width="8"/>
      <rect transform="rotate(-45)" y="48.679546" x="-30.516642" height="8" width="8"/>
    </g>
    <g transform="matrix(2,0,0,2,122.50178,183.49948)">
      <rect transform="rotate(-45)" y="47.265316" x="-9.3034296" height="8" width="8"/>
      <rect width="8" height="8" x="2.0102811" y="35.951607" transform="rotate(-45)" />
      <rect transform="rotate(-45)" y="68.478531" x="-10.717646" height="8" width="8"/>
      <rect width="8" height="8" x="23.223486" y="34.537403" transform="rotate(-45)" />
      <rect transform="rotate(-45)" y="48.679546" x="-30.516642" height="8" width="8"/>
      <rect width="8" height="8" x="3.4244983" y="14.738407" transform="rotate(-45)" />
    </g>
    <g transform="matrix(2,0,0,2,-17.498218,183.4995)">
      <rect transform="rotate(-45)" y="47.265316" x="-9.3034296" height="8" width="8"/>
      <rect width="8" height="8" x="-20.617138" y="58.579025" transform="rotate(-45)" />
      <rect transform="rotate(-45)" y="45.851112" x="11.909779" height="8" width="8"/>
      <rect width="8" height="8" x="23.223486" y="34.537403" transform="rotate(-45)" />
      <rect transform="rotate(-45)" y="26.052118" x="-7.8892145" height="8" width="8"/>
      <rect width="8" height="8" x="3.4244983" y="14.738407" transform="rotate(-45)" />
    </g>
    <g transform="matrix(2,0,0,2,262.50178,543.49946)">
      <rect width="8" height="8" x="2.0102811" y="35.951607" transform="rotate(-45)" />
      <rect transform="rotate(-45)" y="24.637899" x="13.323991" height="8" width="8"/>
      <rect width="8" height="8" x="0.59606379" y="57.164822" transform="rotate(-45)" />
      <rect transform="rotate(-45)" y="68.478531" x="-10.717646" height="8" width="8"/>
      <rect width="8" height="8" x="-19.202927" y="37.365837" transform="rotate(-45)" />
      <rect transform="rotate(-45)" y="48.679546" x="-30.516642" height="8" width="8"/>
    </g>
    <g transform="matrix(2,0,0,2,402.50178,363.49948)">
      <rect transform="rotate(-45)" y="24.637899" x="13.323991" height="8" width="8"/>
      <rect width="8" height="8" x="0.59606379" y="57.164822" transform="rotate(-45)" />
      <rect transform="rotate(-45)" y="68.478531" x="-10.717646" height="8" width="8"/>
      <rect transform="rotate(-45)" y="45.851112" x="11.909779" height="8" width="8"/>
      <rect width="8" height="8" x="-19.202927" y="37.365837" transform="rotate(-45)" />
      <rect transform="rotate(-45)" y="48.679546" x="-30.516642" height="8" width="8"/>
      <rect transform="rotate(-45)" y="26.052118" x="-7.8892145" height="8" width="8"/>
    </g>
    <g transform="matrix(2,0,0,2,402.50178,3.4994815)">
      <rect width="8" height="8" x="0.59606379" y="57.164822" transform="rotate(-45)" />
      <rect transform="rotate(-45)" y="68.478531" x="-10.717646" height="8" width="8"/>
      <rect transform="rotate(-45)" y="45.851112" x="11.909779" height="8" width="8"/>
      <rect width="8" height="8" x="23.223486" y="34.537403" transform="rotate(-45)" />
      <rect width="8" height="8" x="-19.202927" y="37.365837" transform="rotate(-45)" />
      <rect transform="rotate(-45)" y="48.679546" x="-30.516642" height="8" width="8"/>
      <rect transform="rotate(-45)" y="26.052118" x="-7.8892145" height="8" width="8"/>
      <rect width="8" height="8" x="3.4244983" y="14.738407" transform="rotate(-45)" />
    </g>
    <g transform="matrix(2,0,0,2,262.50178,183.4995)">
      <rect transform="rotate(-45)" y="47.265316" x="-9.3034296" height="8" width="8"/>
      <rect width="8" height="8" x="-20.617138" y="58.579025" transform="rotate(-45)" />
      <rect transform="rotate(-45)" y="24.637899" x="13.323991" height="8" width="8"/>
      <rect transform="rotate(-45)" y="45.851112" x="11.909779" height="8" width="8"/>
      <rect transform="rotate(-45)" y="26.052118" x="-7.8892145" height="8" width="8"/>
    </g>
    <g transform="matrix(2,0,0,2,-17.498228,3.4995015)">
      <rect width="8" height="8" x="-20.617138" y="58.579025" transform="rotate(-45)" />
      <rect width="8" height="8" x="2.0102811" y="35.951607" transform="rotate(-45)" />
      <rect transform="rotate(-45)" y="24.637899" x="13.323991" height="8" width="8"/>
      <rect width="8" height="8" x="0.59606379" y="57.164822" transform="rotate(-45)" />
      <rect width="8" height="8" x="-19.202927" y="37.365837" transform="rotate(-45)" />
    </g>
    <g transform="matrix(2,0,0,2,402.50178,183.49948)">
      <rect width="8" height="8" x="2.0102811" y="35.951607" transform="rotate(-45)" />
      <rect width="8" height="8" x="0.59606379" y="57.164822" transform="rotate(-45)" />
      <rect transform="rotate(-45)" y="68.478531" x="-10.717646" height="8" width="8"/>
      <rect width="8" height="8" x="23.223486" y="34.537403" transform="rotate(-45)" />
      <rect width="8" height="8" x="-19.202927" y="37.365837" transform="rotate(-45)" />
      <rect transform="rotate(-45)" y="48.679546" x="-30.516642" height="8" width="8"/>
      <rect width="8" height="8" x="3.4244983" y="14.738407" transform="rotate(-45)" />
    </g>
    <g transform="matrix(2,0,0,2,262.50178,363.4995)">
      <rect width="8" height="8" x="-20.617138" y="58.579025" transform="rotate(-45)" />
      <rect width="8" height="8" x="0.59606379" y="57.164822" transform="rotate(-45)" />
      <rect transform="rotate(-45)" y="45.851112" x="11.909779" height="8" width="8"/>
      <rect width="8" height="8" x="23.223486" y="34.537403" transform="rotate(-45)" />
      <rect width="8" height="8" x="-19.202927" y="37.365837" transform="rotate(-45)" />
      <rect transform="rotate(-45)" y="26.052118" x="-7.8892145" height="8" width="8"/>
      <rect width="8" height="8" x="3.4244983" y="14.738407" transform="rotate(-45)" />
    </g>
    <g transform="matrix(2,0,0,2,402.50178,543.49946)">
      <rect transform="rotate(-45)" y="47.265316" x="-9.3034296" height="8" width="8"/>
      <rect width="8" height="8" x="-20.617138" y="58.579025" transform="rotate(-45)" />
      <rect width="8" height="8" x="2.0102811" y="35.951607" transform="rotate(-45)" />
      <rect transform="rotate(-45)" y="24.637899" x="13.323991" height="8" width="8"/>
    </g>
  </g>
</svg>
