<?xml version="1.0" encoding="UTF-8" standalone="no"?>
<svg
   width="32.707211mm"
   height="50.295822mm"
   viewBox="0 0 32.70721 50.295822"
   version="1.1"
   style="background-color:#000000"
   id="svg1802"
   sodipodi:docname="goldendawn-logo-squished.svg"
   inkscape:version="1.1.2 (0a00cf5339, 2022-02-04, custom)"
   xmlns:inkscape="http://www.inkscape.org/namespaces/inkscape"
   xmlns:sodipodi="http://sodipodi.sourceforge.net/DTD/sodipodi-0.dtd"
   xmlns="http://www.w3.org/2000/svg"
   xmlns:svg="http://www.w3.org/2000/svg"
   xmlns:rdf="http://www.w3.org/1999/02/22-rdf-syntax-ns#"
   xmlns:cc="http://creativecommons.org/ns#"
   xmlns:dc="http://purl.org/dc/elements/1.1/">
  <g
     id="g1063"
     transform="translate(-34.804581,-17.311511)">
    <path
       id="rect896-0-0"
       style="color:#000000;overflow:visible;fill:#800000;stroke:none;stroke-width:0.514903;stroke-linejoin:bevel;paint-order:stroke fill markers"
       d="m 47.401283,39.852938 h 7.513808 v 7.513809 h -7.513808 z m 0,-7.513808 h 7.513808 v 7.513808 h -7.513808 z m 7.513808,-7.513809 h 7.513813 v 7.513809 h -7.513813 z m -15.027619,0 h 7.513811 v 7.513809 h -7.513811 z m 7.513816,0 h 7.513808 v 7.513809 h -7.513808 z m 0,-7.51381 h 7.513808 v 7.513809 h -7.513808 z" />
    <path
       style="color:#000000;overflow:visible;fill:#ffffff;stroke:#000000;stroke-width:0.514903;stroke-linejoin:bevel;paint-order:stroke fill markers"
       id="path885-4"
       d="M 67.288834,67.349883 H 35.027541 L 51.158188,39.410784 Z" />
    <path
       style="color:#000000;overflow:visible;fill:#000000;stroke:#ffffff;stroke-width:0.33497;stroke-linejoin:bevel;paint-order:stroke fill markers"
       id="path885-0-3"
       d="M 61.65199,64.534216 H 40.664386 L 51.158188,46.358418 Z" />
    <path
       id="path980-3"
       style="color:#000000;overflow:visible;fill:#ffff00;stroke:none;stroke-width:0.363854;stroke-linejoin:bevel;paint-order:stroke fill markers"
       d="m 51.158188,55.661364 -1.848766,1.929781 -2.565818,-0.746896 -0.636213,2.595487 -2.595487,0.636212 0.746897,2.565819 -1.929782,1.848765 h 17.658338 l -1.929782,-1.848765 0.746897,-2.565819 -2.595667,-0.636212 -0.636033,-2.595487 -2.565993,0.746896 z" />
    <path
       style="color:#000000;overflow:visible;fill:#ffff00;stroke:#800000;stroke-width:0.299222;stroke-linejoin:bevel;paint-order:stroke fill markers"
       d="m 57.760392,64.534217 c -7.3e-5,-3.677618 -2.955953,-6.658873 -6.60219,-6.658873 -3.646246,-1.6e-5 -6.602145,2.981246 -6.602218,6.658873"
       id="path986-4" />
  </g>
</svg>
