<?xml version="1.0" encoding="UTF-8" standalone="no"?>
<svg
   xmlns:dc="http://purl.org/dc/elements/1.1/"
   xmlns:cc="http://creativecommons.org/ns#"
   xmlns:rdf="http://www.w3.org/1999/02/22-rdf-syntax-ns#"
   xmlns:svg="http://www.w3.org/2000/svg"
   xmlns="http://www.w3.org/2000/svg"
   width="90.153076mm"
   height="47.653442mm"
   viewBox="0 0 90.153076 47.653442"
   version="1.1"
   id="svg1802">
  <defs
     id="defs1796">
    <clipPath
       clipPathUnits="userSpaceOnUse"
       id="clipPath1093">
      <rect
         style="color:#000000;overflow:visible;fill:none;stroke:#ffffff;stroke-width:0.278582;stroke-linejoin:bevel;paint-order:stroke fill markers"
         id="rect1095"
         width="63.221416"
         height="47.346416"
         x="19.54748"
         y="17.43259" />
    </clipPath>
  </defs>
  <metadata
     id="metadata1799">
    <rdf:RDF>
      <cc:Work
         rdf:about="">
        <dc:format>image/svg+xml</dc:format>
        <dc:type
           rdf:resource="http://purl.org/dc/dcmitype/StillImage" />
        <dc:title></dc:title>
      </cc:Work>
    </rdf:RDF>
  </metadata>
  <g
     id="layer1"
     transform="translate(-67.297563,-59.623335)">
    <rect
       style="color:#000000;overflow:visible;fill:#000000;stroke:#ffffff;stroke-width:0.331967;stroke-linejoin:bevel;paint-order:stroke fill markers"
       id="rect833-4"
       width="89.821106"
       height="47.321476"
       x="67.463547"
       y="59.789318" />
    <g
       id="g1063"
       clip-path="url(#clipPath1093)"
       transform="translate(61.215905,42.344255)">
      <path
         id="rect896-0-0"
         style="color:#000000;overflow:visible;fill:#800000;stroke:none;stroke-width:0.514903;stroke-linejoin:bevel;paint-order:stroke fill markers"
         d="m 47.401283,39.852938 h 7.513808 v 7.513809 h -7.513808 z m 0,-7.513808 h 7.513808 v 7.513808 h -7.513808 z m 7.513808,-7.513809 h 7.513813 v 7.513809 h -7.513813 z m -15.027619,0 h 7.513811 v 7.513809 h -7.513811 z m 7.513816,0 h 7.513808 v 7.513809 h -7.513808 z m 0,-7.51381 h 7.513808 v 7.513809 h -7.513808 z" />
      <path
         style="color:#000000;overflow:visible;fill:#ffffff;stroke:#000000;stroke-width:0.514903;stroke-linejoin:bevel;paint-order:stroke fill markers"
         id="path885-4"
         d="m 67.288834,67.349883 -32.261293,0 16.130647,-27.939099 z" />
      <path
         style="color:#000000;overflow:visible;fill:#000000;stroke:#ffffff;stroke-width:0.33497;stroke-linejoin:bevel;paint-order:stroke fill markers"
         id="path885-0-3"
         d="m 61.65199,64.534216 -20.987604,0 10.493802,-18.175798 z" />
      <path
         id="path980-3"
         style="color:#000000;overflow:visible;fill:#ffff00;stroke:none;stroke-width:0.363854;stroke-linejoin:bevel;paint-order:stroke fill markers"
         d="m 51.158188,55.661364 -1.848766,1.929781 -2.565818,-0.746896 -0.636213,2.595487 -2.595487,0.636212 0.746897,2.565819 -1.929782,1.848765 h 17.658338 l -1.929782,-1.848765 0.746897,-2.565819 -2.595667,-0.636212 -0.636033,-2.595487 -2.565993,0.746896 z" />
      <path
         style="color:#000000;overflow:visible;fill:#ffff00;stroke:#800000;stroke-width:0.299222;stroke-linejoin:bevel;paint-order:stroke fill markers"
         d="m 57.760392,64.534217 c -7.3e-5,-3.677618 -2.955953,-6.658873 -6.60219,-6.658873 -3.646246,-1.6e-5 -6.602145,2.981246 -6.602218,6.658873"
         id="path986-4" />
    </g>
  </g>
</svg>
